<svg width="438" height="429" viewBox="0 0 438 429" fill="none" xmlns="http://www.w3.org/2000/svg">
<ellipse cx="206.826" cy="391.748" rx="206.826" ry="37.0687" fill="#F6F6F6"/>
<path fill-rule="evenodd" clip-rule="evenodd" d="M361.014 43.1533C366.651 38.4816 370.826 32.3102 371.163 24.6862C372.134 2.71944 339.36 2.23593 331.786 12.1664C324.212 22.0969 321.635 50.0021 329.497 53.2815C332.633 54.5894 339.739 53.7999 347.213 50.9846L339.333 79.4279L365.278 83.6636L361.014 43.1533Z" fill="#B28B67"/>
<path fill-rule="evenodd" clip-rule="evenodd" d="M349.523 23.3041C346.892 36.1814 343.49 42.3001 339.317 41.6602C333.057 40.7004 328.232 36.0651 325.485 35.6439C323.483 35.3369 323.623 37.8146 324.723 39.8043C325.631 41.4458 330.782 43.6839 330.492 45.9685C330.201 48.2532 326.213 45.8397 326.04 47.1946C325.755 49.4359 324.478 53.5365 328.524 54.1568C332.619 54.7847 344.541 55.1501 347.297 49.6157C349.075 46.0439 350.91 38.3587 352.799 26.5601C353.051 26.5698 353.306 26.5939 353.562 26.6332C357.071 27.1712 359.567 30.3417 359.137 33.7147C358.92 35.4271 357.99 36.8625 356.668 37.7904C357.884 40.0105 359.266 42.3468 360.88 44.7864C368.492 41.7832 375.278 30.6156 369.809 18.0495C368.61 12.1204 364.655 8.44526 359.709 6.26203C355.772 3.9565 351.487 3.10768 347.723 3.55068C340.519 3.04547 333.886 4.15947 331.924 5.12411C331.098 11.6135 332.161 13.7395 343.353 15.2826C345.921 17.0971 347.725 19.8207 349.523 23.3041Z" fill="#191847"/>
<path fill-rule="evenodd" clip-rule="evenodd" d="M336.001 159.962L298.506 278.637L274.925 378.185L262.619 379.368L293.709 164.028L336.001 159.962Z" fill="#B28B67"/>
<path fill-rule="evenodd" clip-rule="evenodd" d="M353.493 161.616C344.297 201.424 338.116 256.439 338.605 259.164C338.931 260.98 358.935 287.715 398.62 339.369L388.476 346.243C338.488 298.299 312.703 271.712 311.123 266.483C308.752 258.639 311.043 191.987 309.692 151.578L353.493 161.616Z" fill="#B28B67"/>
<path fill-rule="evenodd" clip-rule="evenodd" d="M399.866 334.69C402.454 335.915 404.2 337.011 405.104 337.979C406.202 339.157 407.6 341.069 409.296 343.717C407.86 345.072 394.955 357.251 370.582 380.253C366.624 378.039 365.61 375.783 367.542 373.485C369.474 371.187 371.062 369.26 372.306 367.704L383.178 343.092C383.387 342.619 383.931 342.384 384.393 342.567C384.401 342.571 384.408 342.574 384.416 342.577L388.064 344.154C390.902 343.151 392.948 342.058 394.202 340.874C395.221 339.912 396.264 338.192 397.329 335.714L397.329 335.714C397.737 334.763 398.821 334.282 399.749 334.639C399.789 334.655 399.828 334.671 399.866 334.69Z" fill="#B1BAC1"/>
<path fill-rule="evenodd" clip-rule="evenodd" d="M280.41 377.528C281.459 380.181 281.984 382.173 281.986 383.503C281.988 385.12 281.711 387.487 281.154 390.604C279.2 390.652 261.638 391.083 228.468 391.898C227.093 387.585 227.88 385.219 230.829 384.8C233.778 384.381 236.228 384.008 238.179 383.681L262.652 372.597C263.123 372.384 263.676 372.573 263.886 373.021C263.89 373.028 263.893 373.036 263.897 373.044L265.476 376.672C268.209 377.828 270.428 378.385 272.136 378.343C273.523 378.309 275.438 377.724 277.88 376.589L277.88 376.589C278.818 376.153 279.927 376.521 280.358 377.411C280.377 377.449 280.394 377.488 280.41 377.528Z" fill="#B1BAC1"/>
<path fill-rule="evenodd" clip-rule="evenodd" d="M320.39 363.738L261.506 363.197L289.528 164.486L341.836 159.45L320.39 363.738Z" fill="#44B5B5"/>
<path fill-rule="evenodd" clip-rule="evenodd" d="M390.517 322.447L343.639 357.722C315.744 306.6 300.198 273.851 297 259.476C293.803 245.101 296.619 208.792 305.449 150.547L361.207 163.33C351.751 214.184 347.219 240.889 347.613 243.447C348.007 246.004 362.308 272.338 390.517 322.447Z" fill="#55C6C6"/>
<path fill-rule="evenodd" clip-rule="evenodd" d="M269.352 134.761L236.519 149.739C228.191 150.27 221.097 151.553 215.235 153.586C213.789 154.443 211.894 156.375 217.211 156.99C222.527 157.604 228.1 158.479 228.546 160.321C228.992 162.163 225.48 163.597 226.569 166.175C227.295 167.894 232.539 164.927 242.299 157.276L273.362 151.315L269.352 134.761ZM382.379 156.986L363.062 153.387C368.998 192.254 372.258 212.897 372.842 215.317C374.155 220.763 368.377 227.576 365.768 231.333C371.63 235.212 372.583 225.154 379.956 230.182C386.685 234.772 391.253 241.638 400.438 238.312C401.568 237.904 403.069 235.841 400.632 233.543C394.559 227.818 386.033 218.196 385.127 215.391C383.891 211.565 382.975 192.097 382.379 156.986Z" fill="#B28B67"/>
<path fill-rule="evenodd" clip-rule="evenodd" d="M342.317 66.8083L334.433 63.9374C300.341 82.9771 280.24 128.214 239.292 146.398L246.449 158.576C311.589 163.217 336.891 108.189 342.317 66.8083Z" fill="#FCC30B"/>
<path fill-rule="evenodd" clip-rule="evenodd" d="M360.613 173.854C328.052 167.615 303.264 169.337 287.922 166.398C284.638 165.769 286.85 154.916 287.706 152.655C297.588 126.566 323.718 101.409 329.987 62.7773L351.231 63.5541C363.977 93.939 364.492 128.441 360.613 173.854Z" fill="#C5CFD6"/>
<path fill-rule="evenodd" clip-rule="evenodd" d="M372.049 93.0805C375.203 92.8276 377.908 91.3479 380.165 88.6414C389.893 76.9743 388.323 69.2253 380.591 65.2971C372.858 61.3689 364.823 64.8746 351.889 62.3993C351.185 62.2647 350.534 62.1836 349.935 62.156L343.371 61.2663C314.864 118.254 303.151 157.674 308.232 179.526L364.945 190.379C367.087 198.522 369.277 205.447 371.515 211.155L386.969 214.113C395.736 169.378 390.763 129.034 372.049 93.0805Z" fill="#FCC30B"/>
<path fill-rule="evenodd" clip-rule="evenodd" d="M356.859 157.234C352.765 171.158 348.193 180.957 343.143 186.631L364.136 190.653C361.645 181.168 359.219 170.028 356.859 157.234V157.234Z" fill="black" fill-opacity="0.1"/>
<path fill-rule="evenodd" clip-rule="evenodd" d="M131.398 58.3151C127.821 52.8188 125.768 46.5245 127.169 40.1727C131.204 21.8714 158.078 31.1568 162.08 41.5379C166.083 51.919 162.053 75.5646 154.912 75.9314C152.063 76.0777 146.433 73.3309 140.948 68.8145L141.131 94.4678L119.011 90.2771L131.398 58.3151Z" fill="#D4A181"/>
<path fill-rule="evenodd" clip-rule="evenodd" d="M139.925 58.413C136.522 62.8539 132.284 65.8983 128.609 65.2408C121.63 63.9919 118.026 54.1161 119.488 44.4528C119.539 44.1132 119.597 43.7772 119.661 43.4449C111.54 47.0036 104.395 55.6042 94.6263 53.8561C81.3354 51.4779 79.962 24.7133 98.5312 28.036C111.16 30.2958 117.103 33.1807 122.06 36.7611C123.55 34.083 125.524 31.9607 127.747 30.6297C128.299 30.2009 129.099 29.8395 130.105 29.5517C130.723 29.3524 131.353 29.2126 131.99 29.1366C135.391 28.5716 140.19 28.6024 145.44 29.3614C146.42 29.5031 147.38 29.6649 148.312 29.8443C149.045 25.1061 153.62 21.9823 158.546 22.8637C163.481 23.7468 166.899 28.316 166.18 33.0694C165.485 37.6663 161.175 40.7519 156.429 40.1513C153.613 40.4699 150.062 40.4384 146.186 39.9994C146.354 41.4161 146.325 42.9861 146.063 44.7193C145.831 46.2497 145.41 47.8414 144.838 49.4316C144.15 48.3294 143.131 47.5081 142 47.3059C138.839 46.7402 136.26 48.8512 135.858 51.5105C135.348 54.8857 137.001 57.6893 139.925 58.413Z" fill="#191847"/>
<path fill-rule="evenodd" clip-rule="evenodd" d="M75.6543 177.474L108.479 290.584L123.918 375.51H139.414L123.945 177.474H75.6543Z" fill="#BA8B72"/>
<path fill-rule="evenodd" clip-rule="evenodd" d="M60.9024 177.474C63.1928 236.234 62.2895 268.284 61.7769 273.622C61.2643 278.961 58.3541 314.716 38.5234 377.302H54.6408C80.9033 317.261 90.0713 281.506 93.0834 273.622C96.0955 265.738 104.992 233.689 117.98 177.474H60.9024Z" fill="#D4A181"/>
<path fill-rule="evenodd" clip-rule="evenodd" d="M74.9502 177.474C83.4884 216.395 98.2558 278.524 119.252 363.86H141.917C143.591 276.271 136.47 218.623 124.137 177.474H74.9502Z" fill="#B1BAC1"/>
<path fill-rule="evenodd" clip-rule="evenodd" d="M60.7883 177.474C63.0314 236.234 57.2182 294.124 39.2109 364.775H63.3931C89.7039 305.631 108.562 248.026 121.45 177.474H60.7883Z" fill="#C5CFD6"/>
<path fill-rule="evenodd" clip-rule="evenodd" d="M36.2266 388.951L37.1159 374.613C42.3226 376.136 48.8441 375.539 56.6805 372.821C65.1064 378.79 75.7136 382.865 88.502 385.048L88.502 385.048C89.4777 385.214 90.1337 386.14 89.9672 387.116C89.9564 387.179 89.9422 387.242 89.9248 387.303L88.6953 391.639H56.6805H38.0052L36.2266 388.951Z" fill="#2B858B"/>
<path fill-rule="evenodd" clip-rule="evenodd" d="M120.459 388.951L121.348 374.613C126.555 376.136 133.077 375.539 140.913 372.821C149.339 378.79 159.946 382.865 172.734 385.048L172.734 385.048C173.71 385.214 174.366 386.14 174.2 387.116C174.189 387.179 174.175 387.242 174.157 387.303L172.928 391.639H140.913H122.238L120.459 388.951Z" fill="#2B858B"/>
<path fill-rule="evenodd" clip-rule="evenodd" d="M152.372 122.361L187.893 121.775C195.174 118.798 201.815 116.979 207.818 116.32C209.487 116.465 212.101 117.356 207.958 120.082C203.814 122.809 199.592 125.867 200.192 127.646C200.791 129.425 204.501 129.217 204.949 131.898C205.248 133.686 199.272 133.282 187.02 130.687L157.757 138.349L152.372 122.361ZM190.956 157.174L206.568 156.897C211.35 151.426 214.97 149.281 217.427 150.462C219.696 150.571 212.606 156.96 216.489 158.042C220.372 159.124 231.966 157.329 232.865 159.322C234.195 162.27 229.526 166.942 225.862 168.594C219.014 171.683 214.564 171.683 204.562 169.595C199.333 168.502 193.137 168.459 185.974 169.463L190.956 157.174Z" fill="#D4A181"/>
<path fill-rule="evenodd" clip-rule="evenodd" d="M136.763 118.814C147.453 121.926 162.255 124.117 179.932 119.712L182.428 133.904C169.261 140.434 152.327 143.953 139.557 139.733C129.494 136.408 127.507 123.404 136.763 118.814Z" fill="#1C757A"/>
<path fill-rule="evenodd" clip-rule="evenodd" d="M145.141 144.225C155.757 150.419 175.668 153.105 204.871 152.282C207.928 167.384 208.446 177.638 206.424 183.046C180.377 187.387 159.336 186.418 143.054 181.767C141.067 191.073 137.516 199.417 131.413 206.16C118.865 220.023 75.7233 190.314 59.0097 188.397C57.4759 154.541 80.1489 147.958 85.5535 128.262C91.472 106.693 118.748 79.0892 121.425 79.9137L145.834 87.433C142.673 104.325 144.485 124.572 145.141 144.225Z" fill="#2B858B"/>
</svg>
