<svg width="501" height="450" viewBox="0 0 501 450" fill="none" xmlns="http://www.w3.org/2000/svg">
<path d="M433.414 148.945C424.575 148.945 421.364 137.157 416.338 130.688C412.745 126.06 406.614 127.44 404.799 120.96C400.236 104.667 412.452 93.1997 428.387 93.1997C444.322 93.1997 455.067 103.257 457.387 118.376C459.707 133.496 449.349 148.945 433.414 148.945Z" fill="#191847"/>
<path d="M438.827 171.596L432.438 138.42C436.001 133.76 438.413 128.049 438.01 121.652C436.85 103.215 413.811 107.271 409.33 116.576C404.849 125.882 405.38 149.486 411.172 151.148C413.482 151.811 418.402 150.186 423.41 146.824L420.267 171.596H438.827Z" fill="#B28B67"/>
<path d="M432.842 140.693C433.868 140.693 435.523 139.592 437.159 137.821C439.107 135.69 440.648 133.142 441.689 130.33C442.914 127.116 443.27 123.572 442.713 120.135C442.037 116.092 440.048 112.247 436.803 108.707C435.286 106.968 433.471 105.585 431.465 104.642C429.46 103.699 427.305 103.215 425.128 103.217C419.611 103.217 415.003 106.097 412.748 107.815C409.578 110.227 407.252 113.221 407.096 115.089C407.069 115.273 407.078 115.462 407.121 115.643C407.165 115.823 407.242 115.991 407.347 116.137C407.453 116.282 407.585 116.401 407.734 116.485C407.884 116.57 408.047 116.619 408.215 116.628C411.961 117.411 419.119 121.341 424.61 126.561C425.309 126.151 426.088 125.937 426.878 125.938C428.124 125.922 429.325 126.457 430.218 127.426C431.11 128.395 431.622 129.718 431.639 131.107C431.64 132.23 431.304 133.322 430.685 134.208C431.806 136.176 432.54 138.386 432.842 140.693V140.693Z" fill="#191847"/>
<path d="M445.013 243.101L415.912 349.087L401.815 439.22H390.762L405.657 243.101H445.013Z" fill="#997659"/>
<path d="M455.424 243.101C453.447 301.293 455.773 331.309 456.216 336.596C456.658 341.884 462.716 376.164 477.057 440.995L465.279 436.489C442.614 377.028 434.891 346.126 432.292 338.319C429.693 330.511 422.788 298.772 411.579 243.101H455.424Z" fill="#B28B67"/>
<path d="M474.807 435.245C475.005 435.17 475.215 435.14 475.424 435.159C475.633 435.177 475.837 435.242 476.022 435.351C476.208 435.46 476.372 435.609 476.504 435.791C476.636 435.972 476.734 436.181 476.791 436.406L478.267 442.199C478.161 444.48 477.928 446.751 477.571 449H433.955C433.955 449 432.253 442.739 435.917 442.239C439.581 441.739 442.003 441.337 442.003 441.337L462.274 431.27C462.369 431.223 462.47 431.197 462.574 431.195C462.677 431.193 462.78 431.214 462.876 431.256C462.972 431.299 463.059 431.363 463.133 431.444C463.207 431.525 463.265 431.621 463.304 431.728L464.607 435.25C464.607 435.25 467.998 437.012 470.119 437.012L474.807 435.245Z" fill="#E4E4E4"/>
<path d="M402.113 435.245C402.312 435.17 402.522 435.14 402.731 435.159C402.94 435.177 403.144 435.242 403.329 435.351C403.515 435.46 403.679 435.609 403.811 435.791C403.943 435.972 404.04 436.181 404.098 436.406L405.573 442.199C405.467 444.48 405.235 446.751 404.877 449H361.261C361.261 449 359.56 442.739 363.224 442.239C366.888 441.739 369.31 441.337 369.31 441.337L389.581 431.27C389.675 431.223 389.777 431.197 389.88 431.195C389.984 431.193 390.087 431.214 390.183 431.256C390.279 431.299 390.366 431.363 390.44 431.444C390.513 431.525 390.571 431.621 390.611 431.728L391.914 435.25C391.914 435.25 395.305 437.012 397.425 437.012L402.113 435.245Z" fill="#E4E4E4"/>
<path d="M448.88 243.101L436.507 297.1H398.714L404.348 243.101H448.88Z" fill="#2B858B"/>
<path d="M455.84 243.101C461.949 263.494 458.16 297.1 458.16 297.1H419.594L408.989 243.101H455.84Z" fill="#2B858B"/>
<path d="M499.618 306.848C500.481 306.255 501.426 304.022 499.143 302.282C493.452 297.931 485.255 290.324 484.145 287.82C481.879 282.699 474.162 232.783 474.162 232.783L457.999 232.854C457.999 232.854 472.966 286.682 474.162 289.972C475.951 294.913 472.164 302.436 470.546 306.48C473.098 307.752 474.284 306.128 475.582 304.504C476.965 302.772 478.478 301.041 481.91 302.82C486.303 305.097 489.935 308.711 494.264 308.711C496.172 308.669 498.029 308.023 499.618 306.848V306.848ZM361.424 258.41L384.201 243.448L376.926 229.423L355.018 253.23C349.409 255.764 344.138 259.139 339.35 263.264C338.435 264.494 337.438 266.851 341.748 265.796C346.057 264.742 350.629 263.848 351.439 265.408C352.249 266.968 349.863 269.36 351.362 271.403C351.416 271.481 351.486 271.543 351.565 271.585C351.645 271.628 351.732 271.649 351.82 271.647C353.192 271.647 356.393 267.235 361.421 258.41H361.424Z" fill="#B28B67"/>
<path d="M428.236 157.236L421.55 155.957C410.036 187.989 389.936 217.091 361.251 243.266L382.92 272.603C411.604 235.332 429.286 196.879 428.236 157.236Z" fill="#E5B20D"/>
<path d="M457.387 250.854H397.84C397.84 250.854 418.534 194.803 418.534 155.625L436.496 152.643C450.612 177.935 454.603 209.071 457.387 250.854Z" fill="#DDE3E9"/>
<path d="M484.453 279.284C477.941 197.441 436.893 152.643 436.893 152.643L436.879 152.657L436.869 152.643H435.696C433.591 152.724 429.285 152.934 429.285 152.934L424.945 166.753C424.256 192.023 416.902 268.607 416.902 268.607H455.878C455.812 272.118 455.662 275.677 455.429 279.285L484.453 279.284Z" fill="#FCC30B"/>
<path d="M445.013 268.946H455.872C456.138 254.658 455.153 240.376 452.934 226.301C452.431 234.297 451.557 242.259 450.314 250.154C448.9 258.69 447.117 265.012 445.014 268.944L445.013 268.946Z" fill="black" fill-opacity="0.1"/>
<path d="M447.248 242.239L428 232.271V242.239H447.248Z" fill="white" fill-opacity="0.2"/>
<path d="M295.224 43.9468C290.037 43.9468 285.85 48.1292 285.85 53.3105C285.85 55.1832 286.412 56.9311 287.35 58.3668L268.789 79.2791C267.539 78.6548 266.164 78.2803 264.664 78.2803C259.477 78.2803 255.29 82.4627 255.29 87.644C255.29 87.7688 255.29 87.8937 255.29 88.0185L181.859 111.24C180.172 108.681 177.297 106.996 173.985 106.996C168.798 106.996 164.611 111.178 164.611 116.359C164.611 118.045 165.048 119.605 165.86 120.979L147.362 139.456C145.987 138.707 144.425 138.208 142.738 138.208C141.988 138.208 141.238 138.333 140.55 138.458L116.177 94.3234C117.927 92.6379 118.99 90.2658 118.99 87.644C118.99 82.4627 114.802 78.2803 109.615 78.2803C104.428 78.2803 100.241 82.4627 100.241 87.644C100.241 88.7052 100.429 89.7664 100.741 90.7028L61.9947 117.42C60.3073 115.61 57.87 114.487 55.2453 114.487C50.0582 114.487 45.8711 118.669 45.8711 123.85C45.8711 129.031 50.0582 133.214 55.2453 133.214C60.4323 133.214 64.6194 129.031 64.6194 123.85C64.6194 123.164 64.5569 122.477 64.3695 121.853L103.553 94.8228C105.178 96.1961 107.303 97.0076 109.553 97.0076C110.303 97.0076 111.053 96.8828 111.74 96.7579L136.113 140.892C134.363 142.578 133.301 144.95 133.301 147.572C133.301 152.753 137.488 156.935 142.675 156.935C147.862 156.935 152.049 152.753 152.049 147.572C152.049 145.886 151.612 144.325 150.799 142.952L169.298 124.474C170.673 125.224 172.235 125.723 173.922 125.723C179.109 125.723 183.296 121.54 183.296 116.359C183.296 116.234 183.296 116.11 183.296 115.985L256.727 92.7003C258.415 95.2598 261.29 96.9452 264.602 96.9452C269.789 96.9452 273.976 92.7628 273.976 87.5815C273.976 85.7088 273.413 83.9609 272.476 82.5251L291.099 61.6753C292.349 62.2996 293.724 62.6741 295.224 62.6741C300.411 62.6741 304.598 58.4917 304.598 53.3105C304.598 48.1292 300.411 43.9468 295.224 43.9468Z" fill="#55C6C6"/>
<path d="M322.096 199.696H11.1865V3.37085H14.3112V196.575H322.096V199.696Z" fill="#2B858B"/>
<path d="M0 13.7334L2.3123 15.8558L12.7489 4.55699L23.2479 15.8558L25.5602 13.7334L12.7489 0L0 13.7334Z" fill="#2B858B"/>
<path d="M311.785 210.933L309.66 208.623L320.909 198.135L309.66 187.648L311.785 185.401L325.534 198.135L311.785 210.933Z" fill="#2B858B"/>
<path d="M151.481 235.976L158.29 204.14C154.493 199.669 151.922 194.189 152.352 188.049C153.59 170.358 178.139 174.249 182.914 183.179C187.689 192.108 187.122 214.758 180.951 216.353C178.49 216.99 173.248 215.431 167.91 212.204L171.259 235.976H151.481Z" fill="#B28B67"/>
<path d="M175.102 173.453C172.411 172.7 169.616 172.391 166.826 172.536C167.779 170.258 168.126 167.771 167.834 165.318C167.541 162.94 166.48 160.914 165.5 158.793C165.091 157.796 164.506 156.882 163.773 156.094C162.997 155.345 162.031 154.824 160.98 154.588C159.92 154.353 158.822 154.353 157.763 154.588C157.295 154.686 156.875 154.901 156.416 155.02C155.947 155.142 155.719 154.847 155.378 154.551C154.49 153.868 153.426 153.453 152.311 153.355C151.131 153.231 149.938 153.374 148.821 153.775C147.708 154.138 146.707 154.781 145.914 155.644C145.553 156.039 145.258 156.492 145.044 156.984C144.959 157.187 144.945 157.307 144.743 157.382C144.556 157.451 144.337 157.456 144.143 157.519C143.196 157.853 142.325 158.373 141.581 159.05C140.837 159.726 140.235 160.544 139.811 161.457C139.23 163.101 138.997 164.85 139.13 166.59C139.196 168.729 141.122 174.311 142.923 176.347C144.601 178.135 146.78 179.37 149.174 179.889C147.699 181.693 146.589 183.769 145.907 185.999C145.097 188.4 144.595 190.894 144.412 193.422C144.165 195.866 144.29 198.333 144.783 200.739C144.992 201.795 145.413 202.798 146.02 203.686C146.628 204.573 147.41 205.328 148.318 205.903C149.185 206.41 150.095 206.839 151.038 207.185C151.947 207.562 152.884 207.863 153.842 208.086C155.663 208.464 157.763 208.399 159.165 206.944C159.711 206.394 160.191 205.782 160.597 205.12C160.729 204.89 160.809 204.739 160.648 204.514C160.425 204.256 160.172 204.025 159.894 203.827C158.479 202.64 157.58 200.949 157.386 199.11C157.162 197.173 157.679 194.674 159.557 193.829C161.874 192.785 164.424 193.983 166.484 195.099C167.359 192 169.155 189.211 171.972 187.789C175.087 186.218 178.66 186.032 181.866 184.684C182.735 184.382 183.521 183.88 184.162 183.218C184.457 182.909 184.682 182.539 184.822 182.135C184.846 181.888 184.817 181.64 184.738 181.405C184.66 181.17 184.532 180.955 184.364 180.774C182.998 178.623 177.805 174.28 175.102 173.453Z" fill="#191847"/>
<path d="M149.833 449.265C184.878 449.265 213.287 422.061 213.287 388.503C213.287 354.944 184.878 327.74 149.833 327.74C114.788 327.74 86.3789 354.944 86.3789 388.503C86.3789 422.061 114.788 449.265 149.833 449.265Z" fill="#C5CFD6"/>
<path d="M248.484 385.262C243.235 366.821 239.24 350.592 238.235 344.532C235.828 330.082 256.745 329.24 259.51 336.424C263.691 347.294 270.999 383.009 279.777 436.955L269.744 439.892C259.185 416.447 251.549 396.033 248.484 385.262ZM147.269 366.317C156.957 362.476 190.882 350.453 207.244 347.053C211.947 346.076 216.503 345.168 220.788 344.347C233.523 341.908 240.121 364.956 227.856 366.726C197.309 371.135 154.005 375.695 150.3 376.203C150.087 376.232 149.873 376.247 149.659 376.247C144.796 376.248 141.434 368.631 147.269 366.317Z" fill="#B28B67"/>
<path d="M228.746 340.744C228.582 339.841 228.534 338.92 228.603 338.005L176.203 311.245V305.419H182.434C182.434 305.419 258.478 324.858 260.15 330.334C260.162 330.373 260.172 330.407 260.182 330.45C260.208 330.484 260.232 330.519 260.255 330.554C270.305 344.415 276.321 412.086 278.294 417.153L259.042 420.034C251.681 392.64 228.12 373.554 228.746 340.744Z" fill="#44B5B5"/>
<path d="M164.73 359.344L180.557 353.897C175.763 352.935 171.347 352.075 167.572 351.411C143.166 347.118 136.049 334.012 140.257 305.419H185.221C192.565 307.536 230.736 323.595 250.541 332.135C263.648 337.788 259.516 358.169 252.093 363.47C252.091 363.605 252.052 363.737 251.979 363.851C251.906 363.965 251.803 364.057 251.682 364.115C224.217 375.532 200.705 374.978 185.263 374.424C178.252 374.172 172.905 373.92 169.61 374.791L164.73 359.344Z" fill="#55C6C6"/>
<path d="M151.345 366.028C151.32 365.83 151.256 365.639 151.155 365.467C151.054 365.296 150.919 365.146 150.759 365.028C150.599 364.91 150.416 364.826 150.222 364.781C150.029 364.736 149.828 364.731 149.632 364.766L144.58 365.674C142.876 366.618 141.233 367.667 139.658 368.815L157.769 406.095C157.769 406.095 163.273 405.205 162.134 401.886C160.996 398.567 160.298 396.346 160.298 396.346L159.595 375.251C159.592 375.153 159.569 375.057 159.528 374.967C159.486 374.878 159.428 374.798 159.355 374.732C159.283 374.666 159.197 374.615 159.105 374.583C159.012 374.55 158.914 374.536 158.816 374.543L155.577 374.747C155.577 374.747 152.818 372.509 151.937 370.696L151.345 366.028Z" fill="#E4E4E4"/>
<path d="M267.241 434.412C267.029 434.34 266.805 434.312 266.583 434.33C266.36 434.348 266.143 434.41 265.946 434.515C265.748 434.619 265.574 434.762 265.433 434.936C265.292 435.11 265.188 435.311 265.128 435.527L263.555 441.086C263.668 443.274 263.916 445.454 264.297 447.612H310.776C310.776 447.612 312.588 441.603 308.685 441.124C304.781 440.644 302.2 440.259 302.2 440.259L280.597 430.598C280.496 430.552 280.387 430.528 280.276 430.526C280.166 430.523 280.056 430.543 279.953 430.584C279.851 430.626 279.757 430.687 279.679 430.765C279.6 430.843 279.538 430.937 279.497 431.039L278.111 434.417C278.111 434.417 274.497 436.108 272.238 436.108L267.241 434.412Z" fill="#E4E4E4"/>
<path d="M91.6449 365.763C90.725 365.194 89.7177 363.051 92.1518 361.378C98.2157 357.207 106.954 349.905 108.134 347.505C110.548 342.59 118.772 294.689 118.772 294.689L135.993 294.755C135.993 294.755 120.043 346.408 118.772 349.569C116.865 354.31 120.899 361.53 122.625 365.41C119.906 366.631 118.642 365.072 117.258 363.513C115.784 361.852 114.172 360.191 110.514 361.895C105.834 364.083 101.964 367.551 97.3508 367.551C95.318 367.51 93.3388 366.89 91.6449 365.763V365.763ZM239.921 319.259L213.889 308.431L219.699 294.02L245.986 313.384C253.115 315.315 259.072 317.717 263.855 320.591C264.985 321.621 266.349 323.715 261.665 323.354C256.981 322.993 252.033 322.824 251.387 324.427C250.741 326.031 253.576 327.948 252.267 330.111C252.21 330.21 252.126 330.291 252.026 330.346C251.925 330.4 251.812 330.426 251.697 330.419C250.158 330.418 246.232 326.698 239.921 319.259Z" fill="#B28B67"/>
<path d="M167.711 222.196L174.835 220.969C201.272 243.876 212.135 287.88 244.54 311.189L236.742 320.887C180.531 313.913 166.592 260.236 167.711 222.196Z" fill="#2B858B"/>
<path d="M136.648 312.033H199.7C202.58 312.033 202.038 307.859 201.622 305.753C196.814 281.448 178.051 255.248 178.051 220.65L159.864 217.789C144.821 242.058 139.619 271.941 136.648 312.033Z" fill="#DDE3E9"/>
<path d="M107.805 346.754C106.351 299.567 124.16 263.255 139.064 241.36C135.755 241.122 132.767 239.734 130.879 236.316C124.232 224.284 126.632 217.658 133.74 215.481C140.848 213.303 147.176 217.789 158.495 217.789C158.946 217.787 159.398 217.819 159.844 217.885L165.88 218.231C165.88 218.231 190.382 301.538 179.395 329.393H129.558C127.167 335.341 124.418 341.139 121.327 346.753L107.805 346.754Z" fill="#2B858B"/>
<path d="M148.185 329.393H129.559C132.975 321.163 136.743 310.998 140.758 299.181C142.431 313.742 144.929 323.908 148.185 329.392L148.185 329.393Z" fill="#1C757A"/>
</svg>
