<svg width="406" height="365" viewBox="0 0 406 365" fill="none" xmlns="http://www.w3.org/2000/svg">
<path d="M88.8118 33.3988C83.7097 29.742 80.0653 24.8662 77.3928 19.0153C71.5618 6.33837 62.3295 -1.46283 53.583 0.243684C41.9211 2.43777 35.6042 20.9656 39.4915 41.2C43.3788 61.6781 74.2344 98.9776 78.6076 98.2462C82.4949 97.7587 99.5019 58.7527 97.3153 48.026C96.1005 41.6876 92.9421 36.3242 88.8118 33.3988Z" fill="#B6EBC4"/>
<path d="M65.4873 24.3787C68.8887 31.6923 71.3183 39.2497 73.5049 47.0509C75.6915 54.8521 77.1493 62.6533 78.1211 70.6983C79.3359 78.7433 79.8218 86.7883 80.3077 94.5895C80.5507 102.634 80.7936 110.679 80.7936 118.481H76.4204C76.6633 110.436 76.9063 102.391 76.9063 94.5895C76.9063 86.5445 76.6633 78.7433 75.9345 70.6983C75.2056 62.8971 73.9908 54.8521 72.2901 47.0509C70.5894 39.4935 68.4028 31.9361 65.4873 24.3787Z" fill="#8CC3A1"/>
<path d="M113.35 60.2154C115.537 43.3941 111.893 29.0106 105.576 28.2793C99.9877 27.5479 93.9138 37.787 90.9983 51.6829C90.5124 54.1208 89.2976 56.3148 87.1109 58.0213C83.2236 60.9468 81.037 67.7729 82.2518 75.0865C83.7095 84.3504 93.9137 93.6143 93.9137 93.6143C93.9137 93.6143 111.164 76.793 113.35 60.2154Z" fill="#96CDA3"/>
<path d="M103.146 37.5432C100.474 49.7326 98.287 62.1657 96.5863 74.5989C95.1286 87.0321 94.1567 99.709 95.1286 112.142L92.942 112.386C92.2131 99.709 93.6708 87.0321 95.6145 74.5989C97.5581 62.1657 99.9877 49.7326 103.146 37.5432Z" fill="#7AAF94"/>
<path d="M95.1282 141.884H67.674C65.0015 141.884 62.5719 139.934 62.086 137.252L55.2832 96.052H107.762L100.716 137.252C100.23 139.934 97.8007 141.884 95.1282 141.884Z" fill="#87AFB9"/>
<path d="M107.035 103.366H55.7705C53.8269 103.366 52.3691 101.903 52.3691 99.9529V91.9079C52.3691 89.9576 53.8269 88.4949 55.7705 88.4949H107.277C109.221 88.4949 110.679 89.9576 110.679 91.9079V99.9529C110.436 101.903 108.978 103.366 107.035 103.366Z" fill="#A5C8CD"/>
<ellipse cx="188.976" cy="327.425" rx="188.479" ry="36.9403" fill="#F6F6F6"/>
<path d="M194.743 133.833H113.848L95.6328 82.0352C94.5613 79.3514 96.7042 76.3992 99.6508 76.3992H171.707C173.582 76.3992 174.921 77.4727 175.725 79.083L194.743 133.833Z" fill="white"/>
<path d="M169.565 91.6969L167.958 87.6711H109.295L110.634 91.6969H169.565Z" fill="#FF8291"/>
<path d="M171.975 98.9431L170.1 93.3071H111.438L113.313 98.9431H171.975Z" fill="#41B4E6"/>
<path d="M173.315 102.701L172.511 100.553H113.849L114.652 102.701H173.315Z" fill="#FAF58C"/>
<path d="M115.188 104.311L121.616 122.561H145.456L139.028 104.311H115.188Z" fill="#FF8C46"/>
<path d="M140.635 104.311L147.064 122.561H179.743L173.314 104.311H140.635Z" fill="#41B4E6"/>
<path d="M170.903 81.4984L187.511 128.465H117.598L100.99 81.4984H170.903ZM171.707 76.3992H99.6508C96.7042 76.3992 94.5613 79.3514 95.6328 82.0352L113.848 133.833H194.743L175.725 79.083C174.921 77.4727 173.582 76.3992 171.707 76.3992Z" fill="#50374B"/>
<path d="M220.459 141.884H125.099C120.01 141.884 115.456 138.127 113.849 132.759H212.155C216.709 132.759 220.459 136.785 220.459 141.884Z" fill="#695A6E"/>
<path d="M41.1957 317.624L82.6689 157.106L74.6741 155.105L32.7012 317.624H41.1957Z" fill="#A5C8CD"/>
<path d="M311.522 317.624L269.549 155.105L261.804 157.106L303.277 317.624H311.522Z" fill="#A5C8CD"/>
<path d="M315.768 165.357H33.4499C30.7017 165.357 28.4531 163.106 28.4531 160.356V146.355C28.4531 143.604 30.7017 141.354 33.4499 141.354H315.768C318.516 141.354 320.764 143.604 320.764 146.355V160.356C320.514 163.106 318.516 165.357 315.768 165.357Z" fill="#E5C1C1"/>
<path fill-rule="evenodd" clip-rule="evenodd" d="M327.289 52.7639C331.683 47.607 334.656 41.287 334.159 34.2054C332.728 13.8011 304.324 18.2898 298.799 28.5881C293.274 38.8864 293.931 65.0089 301.071 66.8495C303.919 67.5836 309.985 65.7855 316.16 62.064L312.284 89.4811H335.167L327.289 52.7639Z" fill="#B28B67"/>
<path fill-rule="evenodd" clip-rule="evenodd" d="M344.135 27.4133C344.874 26.6809 345.277 25.6355 345.626 24.6428C345.988 23.6116 346.34 22.5698 346.58 21.4965C347.061 19.352 347.066 16.8858 345.536 15.2205C344.309 13.8852 342.468 13.2863 340.769 13.1561C339.637 13.0693 338.474 13.2278 337.389 13.5845C336.312 13.9384 335.384 14.6437 334.341 15.0815C334.301 12.7704 333.905 10.3523 332.732 8.37902C331.604 6.48041 329.805 5.41498 327.757 5.13311C325.654 4.84384 323.578 5.33586 321.696 6.35376C321.225 6.60868 320.758 6.87575 320.311 7.17802C319.937 7.43114 319.548 7.73597 319.109 7.83891C318.62 7.9538 318.377 7.67117 318.059 7.31416C317.686 6.89558 317.266 6.5269 316.821 6.20006C314.856 4.75514 312.276 4.16104 309.999 5.02714C308.95 5.42618 307.929 6.10386 307.218 7.0377C306.583 7.87012 306.13 9.19057 305.255 9.77053C304.883 10.0167 304.62 9.69055 304.282 9.44948C303.774 9.08725 303.289 8.68755 302.774 8.33519C302.052 7.84014 301.27 7.46985 300.432 7.27602C299.205 6.99226 297.51 7.05876 297.16 8.66516C297.028 9.26856 297.129 9.91388 297.171 10.5218C297.23 11.3566 297.291 12.1911 297.363 13.0247C297.418 13.6576 297.488 14.2689 297.607 14.8904C297.671 15.2217 297.87 15.8393 297.728 16.1711C297.551 16.5858 296.731 16.35 296.381 16.3644C295.69 16.393 294.996 16.5142 294.356 16.8097C293.861 17.0387 293.34 17.3755 293.131 17.9434C293.002 18.2923 293.036 18.6506 293.097 19.0095C293.17 19.4402 293.086 19.6687 293.032 20.1033C292.103 19.646 288.885 18.63 288.48 20.2943C288.345 20.8484 288.652 21.4746 288.887 21.9419C289.297 22.7616 289.836 23.5109 290.387 24.2254C291.535 25.7159 292.906 27.0015 294.381 28.101C292.653 28.8694 292.202 31.1358 293.698 32.4862C294.359 33.0824 295.247 33.2151 296.081 33.177C296.386 33.163 296.826 33.0457 297.066 33.0989C297.195 33.1274 297.333 33.2369 297.512 33.2492C298.688 33.3297 300.016 33.0463 301.166 32.7853C303.215 32.3202 305.154 31.3496 306.738 29.8713C307.144 29.4921 307.48 29.2738 308.027 29.2794C308.506 29.2842 308.976 29.4156 309.455 29.4277C310.722 29.4601 311.864 28.8408 313.041 28.4285C313.113 30.0178 313.565 31.7681 314.215 33.1978C314.746 34.3637 315.853 34.5332 316.941 34.6354C320.419 34.9628 323.91 34.5975 327.393 34.6023C324.022 35.3645 320.537 35.6786 317.196 36.5754C315.685 36.9807 316.839 37.9988 317.484 38.7046C318.548 39.8668 319.339 41.3068 319.887 42.8238C321.537 40.6738 324.452 39.2571 327.035 39.9176C329.889 40.6473 331.898 44.5067 330.073 47.2812C329.014 48.8919 327.101 49.5137 325.509 50.2057C326.751 51.4969 327.051 53.404 327.798 55.0104C328.167 55.8026 328.685 56.6983 329.509 56.9744C329.814 57.0765 330.172 57.0853 330.413 57.3339C330.711 57.6418 330.782 57.986 331.162 58.2506C332.681 59.3067 335.054 59.2253 336.401 57.8471C337.618 56.6006 337.302 54.6282 336.285 53.3645C337.903 52.6898 340.853 51.822 340.209 49.3C343.717 49.0671 352.233 43.3783 347.526 39.2213C350.109 37.7611 352.483 34.1926 350.823 31.0469C349.545 28.6245 346.573 27.5418 344.135 27.4133Z" fill="#191847"/>
<path fill-rule="evenodd" clip-rule="evenodd" d="M218.891 188.407C211.038 183.691 197.862 189.75 197.871 196.494C197.898 216.673 216.314 311.778 217.275 317.79C218.237 323.802 228.537 325.39 229.137 317.81C230.091 305.748 231.865 263.993 230.09 244.666C229.358 236.689 228.569 229.091 227.793 222.313C237.456 239.764 252.401 264.749 272.628 297.269L283.608 292.253C274.986 263.844 267.915 243.788 262.397 232.085C252.949 212.046 244.089 194.886 240.36 188.841C234.495 179.333 224.286 182.651 218.891 188.407Z" fill="#B28B67"/>
<path fill-rule="evenodd" clip-rule="evenodd" d="M282.824 276.477L245.136 187.198C236.108 172.674 210.794 190.153 213.873 198.577C220.863 217.7 256.413 279.612 258.496 285.31L282.824 276.477Z" fill="#44B5B5"/>
<path fill-rule="evenodd" clip-rule="evenodd" d="M285.264 286.445C287.547 288.268 289.024 289.768 289.694 290.944C290.509 292.374 291.448 294.609 292.51 297.647C290.764 298.668 275.074 307.848 245.441 325.186C242.027 322.058 241.551 319.569 244.012 317.721C246.473 315.873 248.504 314.315 250.107 313.048L266.702 290.977C267.021 290.552 267.617 290.443 268.033 290.734C268.04 290.739 268.047 290.744 268.054 290.749L271.308 293.169C274.364 292.823 276.654 292.205 278.18 291.312C279.419 290.587 280.859 289.11 282.501 286.881L282.501 286.881C283.131 286.026 284.321 285.796 285.158 286.367C285.195 286.392 285.23 286.418 285.264 286.445Z" fill="#E5B20D"/>
<path fill-rule="evenodd" clip-rule="evenodd" d="M231.548 312.971C232.615 315.818 233.148 317.949 233.148 319.363C233.148 321.082 232.862 323.591 232.289 326.889C230.295 326.889 212.369 326.889 178.513 326.889C177.116 322.27 177.922 319.775 180.933 319.407C183.944 319.039 186.445 318.706 188.436 318.409L213.431 307.266C213.912 307.052 214.476 307.268 214.69 307.749C214.694 307.757 214.697 307.766 214.701 307.774L216.307 311.671C219.095 312.972 221.36 313.622 223.102 313.622C224.518 313.622 226.473 313.05 228.968 311.906L228.968 311.906C229.925 311.468 231.057 311.888 231.496 312.845C231.515 312.887 231.533 312.928 231.548 312.971Z" fill="#E5B20D"/>
<path fill-rule="evenodd" clip-rule="evenodd" d="M195.229 203.354C195.229 228.684 207.259 287.77 207.266 293.347L233.148 293.367C229.36 240.646 228.017 214.001 229.118 213.433C230.771 212.581 296.861 220.032 316.683 220.032C345.266 220.032 357.09 202.007 358.05 168.617H301.428C289.899 169.851 229.765 181.98 207.432 186.15C197.871 187.935 195.229 196.376 195.229 203.354Z" fill="#55C6C6"/>
<path fill-rule="evenodd" clip-rule="evenodd" d="M292.607 109.218L259.513 91.0922C254.01 84.557 248.588 79.4815 243.247 75.8657C241.614 75.1843 238.76 74.7719 241.429 79.5095C244.099 84.247 246.693 89.3503 245.333 90.8098C243.973 92.2693 240.583 90.2304 238.96 92.6555C237.879 94.2722 243.672 96.8261 256.34 100.317L280.386 122.335L292.607 109.218ZM240.776 124.511L226.239 116.525C224.2 108.764 221.761 104.859 218.925 104.81C216.745 103.796 220.541 113.603 216.409 112.753C212.278 111.902 202.196 104.403 200.458 105.926C197.888 108.178 200.18 115.095 202.88 118.536C207.927 124.966 212.105 127.165 222.433 130.045C227.833 131.551 233.672 134.568 239.948 139.099L240.776 124.511Z" fill="#997659"/>
<path fill-rule="evenodd" clip-rule="evenodd" d="M308.725 105.18C297.134 105.057 281.676 102.609 265.183 92.14L258.706 106.585C270.082 117.875 286.079 127.151 300.066 126.759C311.089 126.449 316.722 113.116 308.725 105.18Z" fill="#E5B20D"/>
<path fill-rule="evenodd" clip-rule="evenodd" d="M293.116 128.345C280.81 131.414 260.174 127.794 231.207 117.487C224.022 132.351 220.701 142.948 221.243 149.278C246.092 162.259 267.39 168.046 284.937 168.428C284.379 178.839 285.646 188.746 289.903 197.798C298.655 216.408 349.903 199.173 367.134 202.566C377.924 167.522 357.06 153.28 357.044 130.857C357.025 106.302 337.308 68.5051 334.407 68.5051L307.952 68.5051C306.493 87.2585 299.146 107.926 293.116 128.345Z" fill="#FCC30B"/>
<path d="M311.944 222.095H302.484V327.301H311.944V222.095Z" fill="#A5A0AA"/>
<path d="M351.134 231.585H241.673C236.537 231.585 232.213 227.518 232.213 222.095C232.213 216.943 236.267 212.605 241.673 212.605H351.134C354.107 212.605 356.54 210.707 357.351 207.724L387.621 77.5723C388.703 72.4205 393.838 69.4378 398.703 70.5224C403.838 71.607 406.811 76.7589 405.73 81.6395L375.459 212.062C372.756 223.451 362.756 231.585 351.134 231.585Z" fill="#695A6E"/>
<path d="M352.756 340.858H343.296C343.296 336.248 339.512 332.181 334.648 332.181H280.052C275.457 332.181 271.403 335.977 271.403 340.858H261.943C261.943 331.097 270.052 322.962 279.782 322.962H334.918C344.648 322.691 352.756 330.825 352.756 340.858Z" fill="#695A6E"/>
<path d="M278.429 226.976C278.159 226.976 277.889 226.976 277.889 226.976C274.916 226.704 273.024 223.993 273.294 221.01L280.051 166.78C281.943 150.783 295.457 138.852 311.403 138.852H381.945C384.918 138.852 387.08 141.292 387.08 144.004C387.08 146.715 384.648 149.156 381.945 149.156H311.403C300.592 149.156 291.673 157.29 290.322 167.865L283.565 222.366C283.294 225.078 280.862 226.976 278.429 226.976Z" fill="#50374B"/>
</svg>
