<svg width="236" height="338" viewBox="0 0 236 338" fill="none" xmlns="http://www.w3.org/2000/svg">
<path d="M164.81 88.9716L156.548 50.4616C161.155 45.0526 164.274 38.4236 163.753 30.9966C162.253 9.59664 132.461 14.3046 126.667 25.1056C120.873 35.9066 121.56 63.3056 129.049 65.2346C132.036 66.0046 138.398 64.1186 144.874 60.2156L140.81 88.9716H164.81Z" fill="#B28B67"/>
<path d="M174.217 23.8717C174.946 23.0328 175.48 22.0422 175.78 20.9717C176.178 19.8922 176.511 18.7903 176.78 17.6717C177.28 15.4227 177.289 12.8357 175.68 11.0897C174.341 9.77065 172.558 8.99864 170.68 8.92468C169.48 8.84088 168.276 8.99343 167.135 9.37368C166.006 9.74468 165.035 10.4847 163.935 10.9437C163.984 8.49456 163.403 6.07393 162.248 3.91368C161.699 2.98309 160.943 2.19199 160.037 1.60219C159.132 1.01238 158.103 0.639846 157.03 0.513679C154.829 0.248169 152.6 0.69688 150.673 1.79368C150.179 2.06068 149.689 2.34068 149.22 2.65868C148.844 2.96272 148.417 3.19738 147.959 3.35168C147.446 3.47268 147.191 3.17568 146.859 2.80168C146.468 2.36804 146.032 1.97657 145.559 1.63368C144.563 0.851344 143.389 0.328579 142.141 0.112322C140.893 -0.103934 139.611 -0.00691172 138.41 0.394679C137.262 0.816106 136.253 1.54585 135.493 2.50368C134.827 3.37668 134.353 4.76168 133.434 5.36968C133.044 5.62768 132.769 5.28568 132.414 5.03268C131.881 4.65268 131.372 4.23268 130.833 3.86368C130.092 3.34324 129.26 2.9664 128.38 2.75268C127.094 2.45268 125.316 2.52468 124.948 4.20968C124.861 4.85636 124.865 5.51212 124.96 6.15768C125.021 7.03368 125.085 7.90868 125.16 8.78268C125.211 9.43902 125.297 10.0922 125.416 10.7397C125.565 11.1708 125.608 11.6313 125.543 12.0827C125.357 12.5177 124.497 12.2707 124.13 12.2827C123.399 12.2987 122.679 12.4581 122.01 12.7517C121.728 12.8557 121.47 13.0143 121.249 13.2183C121.029 13.4223 120.851 13.6678 120.725 13.9407C120.614 14.3035 120.601 14.6894 120.689 15.0587C120.733 15.4421 120.71 15.8302 120.621 16.2057C119.647 15.7257 116.272 14.6607 115.847 16.4057C115.792 17.0131 115.942 17.6214 116.273 18.1337C116.72 18.9804 117.246 19.7824 117.846 20.5287C119.05 22.0686 120.46 23.4363 122.036 24.5937C121.608 24.777 121.234 25.066 120.948 25.4337C120.663 25.8013 120.476 26.2355 120.404 26.6954C120.333 27.1553 120.379 27.6259 120.539 28.0629C120.699 28.4999 120.968 28.889 121.32 29.1937C121.669 29.4728 122.069 29.6805 122.498 29.8049C122.927 29.9293 123.376 29.968 123.82 29.9187C124.161 29.859 124.507 29.8316 124.853 29.8367C125.003 29.9048 125.16 29.9578 125.321 29.9947C126.615 30.0114 127.904 29.8479 129.153 29.5087C131.337 29.0253 133.354 27.9707 134.997 26.4527C135.165 26.2588 135.373 26.1031 135.606 25.996C135.839 25.8889 136.092 25.8328 136.349 25.8317C136.849 25.8367 137.349 25.9747 137.849 25.9877C139.156 25.8699 140.43 25.5148 141.61 24.9397C141.712 26.6675 142.13 28.3621 142.842 29.9397C143.398 31.1627 144.559 31.3397 145.7 31.4477C149.349 31.7907 153.01 31.4077 156.663 31.4127C153.127 32.2127 149.472 32.5417 145.963 33.4817C144.379 33.9067 145.588 34.9747 146.263 35.7147C147.377 36.976 148.234 38.4438 148.783 40.0347C150.513 37.7797 153.571 36.2937 156.283 36.9867C159.276 37.7517 161.383 41.7997 159.47 44.7097C158.359 46.3987 156.352 47.0507 154.682 47.7767C155.982 49.1307 156.3 51.1307 157.082 52.8157C157.387 53.711 158.031 54.4509 158.876 54.8757C159.218 54.9217 159.543 55.0511 159.823 55.2527C160.136 55.5757 160.21 55.9367 160.609 56.2137C161.438 56.7733 162.432 57.036 163.43 56.9592C164.427 56.8824 165.369 56.4706 166.103 55.7907C166.652 55.1239 166.942 54.2814 166.92 53.4179C166.897 52.5544 166.564 51.728 165.981 51.0907C167.681 50.3827 170.772 49.4727 170.097 46.8277C173.776 46.5837 182.708 40.6167 177.771 36.2567C180.481 34.7257 182.971 30.9827 181.23 27.6827C179.89 25.1417 176.773 24.0067 174.215 23.8717" fill="#191847"/>
<path d="M208.188 213.972H130.933L120.811 337.972H235.811L208.188 213.972Z" fill="#C5CFD6"/>
<path d="M208.188 213.972H184.428L170.211 337.972H235.811L208.188 213.972Z" fill="black" fill-opacity="0.1"/>
<path d="M53.6024 328.449C54.6024 315.799 56.4634 272.005 54.6024 251.734C53.8174 243.177 52.9694 235.034 52.1374 227.807C69.9954 259.923 99.2174 306.907 99.2174 306.907L110.733 301.643C110.733 301.643 97.1674 256.949 88.4864 238.538C78.5764 217.521 69.2864 199.523 65.3744 193.183C59.2234 183.212 48.5144 186.691 42.8564 192.727C34.6194 187.782 20.8004 194.136 20.8094 201.209C20.8384 222.374 40.1534 322.123 41.1614 328.428C41.6954 331.765 44.9734 333.803 48.0334 333.803C50.7564 333.8 53.3064 332.192 53.6024 328.449Z" fill="#B28B67"/>
<path d="M109.91 285.097L70.3822 191.459C60.9132 176.226 34.3633 194.559 37.5926 203.394C44.9237 223.451 82.2096 288.387 84.394 294.362L109.91 285.097Z" fill="#44B5B5"/>
<path d="M109 295.951C109.179 295.747 109.397 295.582 109.642 295.465C109.887 295.349 110.153 295.283 110.424 295.272C110.694 295.261 110.965 295.306 111.218 295.402C111.471 295.499 111.702 295.647 111.896 295.835L116.911 300.705C118.116 303.067 119.174 305.5 120.079 307.992L71.2351 336.192C71.2351 336.192 65.6958 330.998 69.509 328.126C73.3223 325.255 75.8012 323.285 75.8012 323.285L92.6584 300.058C92.7369 299.95 92.8364 299.859 92.9508 299.789C93.0653 299.72 93.1924 299.675 93.3248 299.656C93.4572 299.636 93.592 299.644 93.7214 299.678C93.8507 299.712 93.972 299.771 94.078 299.853L97.5812 302.551C97.5812 302.551 102.402 302.13 104.776 300.759L109 295.951Z" fill="#FCC30B"/>
<path d="M53.3365 322.005C53.5933 321.917 53.8651 321.884 54.1353 321.905C54.4056 321.926 54.6687 322.002 54.9087 322.128C55.1487 322.254 55.3605 322.428 55.5314 322.638C55.7022 322.849 55.8285 323.092 55.9025 323.353L57.8105 330.078C57.6737 332.725 57.3731 335.361 56.9105 337.972H0.510548C0.510548 337.972 -1.68945 330.704 3.04855 330.124C7.78655 329.544 10.9185 329.077 10.9185 329.077L37.1305 317.391C37.2527 317.336 37.3845 317.307 37.5182 317.304C37.6519 317.301 37.7848 317.325 37.909 317.375C38.0332 317.425 38.1461 317.499 38.2412 317.593C38.3363 317.687 38.4116 317.799 38.4625 317.923L40.1475 322.011C40.1475 322.011 44.5325 324.057 47.2745 324.057L53.3365 322.005Z" fill="#FCC30B"/>
<path d="M18.0405 208.405C18.0405 234.972 30.6575 296.942 30.6655 302.792L57.8105 302.813C57.8105 302.813 51.8505 219.872 53.5835 218.972C55.3165 218.072 124.635 225.893 145.424 225.893C175.403 225.897 187.805 206.992 188.811 171.972H129.425C117.333 173.266 54.2625 185.987 30.8385 190.36C20.8105 192.233 18.0405 201.087 18.0405 208.405Z" fill="#55C6C6"/>
<path d="M65.8099 125.712L50.5629 117.336C50.5629 117.336 47.3549 105.126 42.8909 105.049C41.7399 104.513 42.1789 106.858 42.3439 109.202C42.5069 111.511 42.4029 113.821 40.2529 113.379C35.9199 112.487 25.3449 104.622 23.5229 106.219C20.8229 108.582 23.2299 115.836 26.0629 119.445C31.3569 126.19 35.7389 128.496 46.5709 131.517C55.0709 133.886 64.9409 141.017 64.9409 141.017L65.8099 125.712ZM120.172 109.672L85.4629 90.6598C80.5298 84.5845 74.7893 79.2121 68.4009 74.6918C66.6889 73.9768 63.6959 73.5438 66.4949 78.5128C69.2939 83.4818 72.0159 88.8338 70.5949 90.3648C69.9689 91.0368 68.9309 91.0008 67.8189 90.9648C66.4019 90.9198 64.8639 90.8738 63.9099 92.3008C62.7765 93.9961 68.8525 96.6748 82.1379 100.337L107.354 123.429L120.172 109.672Z" fill="#997659"/>
<path d="M137.081 105.438C120.866 105.313 105.023 100.569 91.4084 91.7606L84.6148 106.91C96.5463 118.752 113.324 128.481 127.994 128.07C139.555 127.744 145.463 113.761 137.081 105.438Z" fill="#1C757A"/>
<path d="M168.165 209.452C180.375 207.865 191.736 206.279 198.337 207.578C209.655 170.823 187.772 155.887 187.755 132.372C187.735 106.614 167.056 66.9717 164.013 66.9717H136.266C134.736 86.6307 127.037 108.297 120.715 129.701C100.551 134.279 55.7738 118.345 55.7738 118.345C55.7738 118.345 44.4738 141.73 45.3228 151.688C71.3868 165.303 93.7228 171.373 112.123 171.773C111.538 182.692 112.868 193.084 117.332 202.573C120.673 209.673 129.915 211.8 141.194 211.8C149.591 211.804 159.113 210.628 168.165 209.452Z" fill="#2B858B"/>
</svg>
