<svg width="30" height="30" viewBox="0 0 30 30" fill="none" xmlns="http://www.w3.org/2000/svg">
<path fill-rule="evenodd" clip-rule="evenodd" d="M15 28C22.1797 28 28 22.1797 28 15C28 7.8203 22.1797 2 15 2C7.8203 2 2 7.8203 2 15C2 22.1797 7.8203 28 15 28ZM15 30C23.2843 30 30 23.2843 30 15C30 6.71573 23.2843 1.29545e-06 15 8.34544e-07C6.71573 3.73638e-07 -3.73638e-07 6.71573 -8.34544e-07 15C-1.29545e-06 23.2843 6.71573 30 15 30Z" fill="#2B858B"/>
<path fill-rule="evenodd" clip-rule="evenodd" d="M10.7984 10.3717C11.3055 9.87608 12.1277 9.87608 12.6348 10.3717C13.1419 10.8674 13.1419 11.671 12.6348 12.1667L10.5231 14.2308L22.7015 14.2308C23.4186 14.2308 24 14.799 24 15.5C24 16.201 23.4186 16.7692 22.7015 16.7692L10.5231 16.7692L12.6348 18.8333C13.1419 19.329 13.1419 20.1326 12.6348 20.6283C12.1277 21.1239 11.3055 21.1239 10.7984 20.6282L6.31694 16.2479C5.89435 15.8348 5.89435 15.1652 6.31694 14.7521L10.7984 10.3717Z" fill="#2B858B"/>
</svg>
