<svg class="HbLogo"
  xmlns="http://www.w3.org/2000/svg" width="29px" height="32px" version="1.1">
  <path fill="white" fill-rule="evenodd" stroke="none" stroke-width="1" d="M22.457 25.822c-2.207 2.13-5 4.12-8.291 5.992-3.292-1.873-6.084-3.862-8.292-5.992h16.583zm5.18-7.99a15.786 15.786 0 0 1-1.854 3.995H2.548a15.775 15.775 0 0 1-1.853-3.995h26.942zm-.007-7.989c.387 1.265.596 2.606.596 3.995H.105c0-1.389.208-2.73.595-3.995h26.93zM2.686 5.848A14.115 14.115 0 0 1 14.165 0c4.738 0 8.93 2.31 11.479 5.848H2.686z"></path>
</svg>
