<svg width="150" height="29" viewBox="0 0 150 29" fill="none" xmlns="http://www.w3.org/2000/svg">
<path d="M27.854 15.3176C27.9502 15.3176 28.0295 15.4024 28.0181 15.4984C27.2483 22.5464 21.2702 28.0231 14.0128 28.0231C6.76098 28.0231 0.782944 22.5464 0.013043 15.4984C0.00172097 15.4024 0.0809753 15.3176 0.177213 15.3176H27.854Z" fill="#55C6C6"/>
<path d="M3.59506 5.03109V12.6499C3.59506 12.7403 3.52147 12.8082 3.43655 12.8082H0.164476C0.0682383 12.8082 -0.00535514 12.7234 0.0003059 12.6273C0.30034 9.70528 1.49482 7.0432 3.31201 4.9237C3.40825 4.81069 3.59506 4.88414 3.59506 5.03109Z" fill="#2B858B"/>
<path d="M9.70387 0.903693V12.6484C9.70387 12.7388 9.63028 12.8067 9.54534 12.8067H6.27328C6.18267 12.8067 6.11475 12.7332 6.11475 12.6484V2.5145C6.11475 2.46363 6.14306 2.41276 6.18834 2.37885C7.20168 1.69497 8.31121 1.14107 9.49439 0.745438C9.59062 0.711529 9.70387 0.790654 9.70387 0.903693Z" fill="#2B858B"/>
<path d="M15.8122 0.259989V12.649C15.8122 12.7395 15.7386 12.8073 15.6537 12.8073H12.3816C12.2911 12.8073 12.2231 12.7338 12.2231 12.649V0.259989C12.2231 0.180862 12.2797 0.113039 12.359 0.101735C12.9025 0.0339116 13.4572 0 14.012 0C14.5725 0 15.1272 0.0339116 15.6764 0.101735C15.7556 0.113039 15.8122 0.180862 15.8122 0.259989Z" fill="#2B858B"/>
<path d="M21.9199 2.5145V12.6484C21.9199 12.7388 21.8463 12.8067 21.7614 12.8067H18.4893C18.3987 12.8067 18.3308 12.7332 18.3308 12.6484V0.903693C18.3308 0.790654 18.444 0.711529 18.5459 0.745438C19.7291 1.14107 20.8386 1.69497 21.852 2.37885C21.8916 2.41276 21.9199 2.46363 21.9199 2.5145Z" fill="#2B858B"/>
<path d="M27.8585 12.8078H24.5921C24.5015 12.8078 24.4336 12.7344 24.4336 12.6496V5.03643C24.4336 4.88947 24.6204 4.81597 24.7166 4.92903C26.5338 7.04849 27.7283 9.70494 28.0227 12.627C28.034 12.723 27.9547 12.8078 27.8585 12.8078Z" fill="#2B858B"/>
<path d="M36.1111 6.70883H40.0496V24.0691H36.1111V6.70883ZM51.1429 17.0799C51.1429 15.8774 50.9831 15.0257 50.6634 14.5247C50.3606 14.0237 49.8304 13.7732 49.0729 13.7732C48.8371 13.7732 48.5934 13.7899 48.3407 13.8233C48.0881 13.84 47.8443 13.8651 47.6085 13.8984V24.0691H43.8468V11.3432C44.1666 11.2597 44.5369 11.1762 44.9576 11.0927C45.3952 10.9925 45.8497 10.909 46.321 10.8422C46.809 10.7587 47.3057 10.7002 47.8106 10.6669C48.3154 10.6168 48.8118 10.5917 49.3003 10.5917C50.2593 10.5917 51.0337 10.717 51.6229 10.9675C52.2285 11.2013 52.7254 11.4852 53.1121 11.8192C53.6507 11.4351 54.2653 11.1345 54.9553 10.9174C55.6621 10.7003 56.3104 10.5917 56.8992 10.5917C57.9595 10.5917 58.8267 10.742 59.4998 11.0426C60.1898 11.3265 60.7368 11.7357 61.1409 12.2701C61.5445 12.8046 61.8224 13.4391 61.9738 14.174C62.1253 14.9088 62.2012 15.7272 62.2012 16.629V24.0691H58.4395V17.0799C58.4395 15.8774 58.2796 15.0257 57.9595 14.5247C57.6567 14.0237 57.1265 13.7732 56.369 13.7732C56.167 13.7732 55.881 13.8233 55.5107 13.9235C55.1573 14.0237 54.8629 14.1489 54.6271 14.2993C54.7448 14.6833 54.8207 15.0925 54.8545 15.5268C54.8878 15.9443 54.9046 16.3952 54.9046 16.8795V24.0691H51.1429V17.0799ZM74.1253 17.5809C74.1253 16.4286 73.8642 15.51 73.3424 14.8253C72.8207 14.1239 72.0463 13.7732 71.0198 13.7732C70.6832 13.7732 70.372 13.7899 70.0856 13.8233C69.7996 13.84 69.5638 13.8651 69.3787 13.8984V20.6371C69.6145 20.7875 69.9173 20.9127 70.2876 21.0129C70.6748 21.1131 71.062 21.1632 71.4492 21.1632C73.2332 21.1632 74.1253 19.9691 74.1253 17.5809ZM77.9624 17.4807C77.9624 18.4994 77.8363 19.4263 77.5842 20.2614C77.3315 21.0964 76.9612 21.8145 76.4732 22.4158C75.9853 23.017 75.3792 23.4846 74.6554 23.8186C73.9317 24.1526 73.0987 24.3196 72.156 24.3196C71.6343 24.3196 71.1459 24.2695 70.6917 24.1693C70.2374 24.0691 69.7996 23.9272 69.3787 23.7434V28.7036H65.617V11.3432C65.9535 11.2431 66.3407 11.1512 66.7785 11.0677C67.2159 10.9675 67.6706 10.884 68.1417 10.8172C68.6296 10.7503 69.1181 10.7002 69.606 10.6669C70.1109 10.6168 70.5909 10.5917 71.0451 10.5917C72.1392 10.5917 73.1151 10.7587 73.9738 11.0927C74.8321 11.41 75.5559 11.8693 76.1451 12.4705C76.7338 13.0551 77.1801 13.7732 77.4829 14.6249C77.8026 15.4767 77.9624 16.4286 77.9624 17.4807ZM85.9284 21.4638C86.2987 21.4638 86.6521 21.4555 86.9887 21.4388C87.3253 21.4221 87.5948 21.397 87.7968 21.3636V18.5329C87.6449 18.4995 87.4181 18.4661 87.1148 18.4326C86.812 18.3993 86.5345 18.3826 86.2818 18.3826C85.9284 18.3826 85.5918 18.4076 85.2721 18.4577C84.9688 18.4911 84.6998 18.5662 84.464 18.6831C84.2287 18.8001 84.0435 18.9587 83.9085 19.1592C83.774 19.3596 83.7065 19.6101 83.7065 19.9107C83.7065 20.4952 83.9001 20.9044 84.2873 21.1382C84.6913 21.3553 85.2384 21.4638 85.9284 21.4638ZM85.6256 10.5416C86.7365 10.5416 87.6618 10.6669 88.4024 10.9174C89.1431 11.1679 89.7323 11.5269 90.1696 11.9946C90.6243 12.4622 90.944 13.03 91.1292 13.698C91.3143 14.3661 91.4071 15.1093 91.4071 15.9276V23.6934C90.8685 23.8103 90.1195 23.9439 89.1599 24.0942C88.2004 24.2612 87.0393 24.3447 85.6757 24.3447C84.8174 24.3447 84.0351 24.2695 83.3282 24.1192C82.6378 23.9689 82.0406 23.7268 81.5357 23.3928C81.0304 23.0421 80.6432 22.5911 80.3742 22.04C80.1046 21.4889 79.9701 20.8125 79.9701 20.0109C79.9701 19.2426 80.1215 18.5913 80.4248 18.0569C80.7445 17.5225 81.1654 17.0966 81.6871 16.7793C82.2088 16.462 82.806 16.2366 83.4796 16.1029C84.1528 15.9526 84.8512 15.8774 85.5749 15.8774C86.0629 15.8774 86.4923 15.9025 86.8626 15.9526C87.2498 15.986 87.561 16.0361 87.7968 16.1029V15.7522C87.7968 15.1176 87.6032 14.6082 87.216 14.2241C86.8288 13.84 86.1557 13.6479 85.1962 13.6479C84.5568 13.6479 83.9254 13.698 83.3029 13.7983C82.6799 13.8817 82.1413 14.007 81.6871 14.174L81.2071 11.1679C81.426 11.1011 81.6956 11.0343 82.0153 10.9675C82.3518 10.884 82.7137 10.8172 83.1009 10.7671C83.4881 10.7003 83.8917 10.6502 84.3126 10.6168C84.7504 10.5666 85.1878 10.5416 85.6256 10.5416ZM94.1774 17.4807C94.1774 16.5288 94.3288 15.6353 94.6317 14.8003C94.9513 13.9485 95.406 13.2137 95.9952 12.5958C96.584 11.9612 97.2993 11.4601 98.1412 11.0927C98.9826 10.7253 99.9421 10.5416 101.019 10.5416C101.726 10.5416 102.374 10.6084 102.963 10.742C103.552 10.8589 104.124 11.0343 104.68 11.2681L103.897 14.2491C103.544 14.1156 103.157 13.9986 102.736 13.8984C102.315 13.7983 101.844 13.7481 101.322 13.7481C100.211 13.7481 99.3782 14.0905 98.8228 14.7752C98.2842 15.4599 98.0146 16.3618 98.0146 17.4807C98.0146 18.6665 98.2673 19.585 98.7721 20.2363C99.2939 20.8877 100.194 21.2133 101.474 21.2133C101.928 21.2133 102.416 21.1716 102.938 21.0881C103.46 21.0046 103.939 20.8709 104.377 20.6872L104.907 23.7434C104.469 23.9272 103.922 24.0858 103.266 24.2195C102.61 24.3531 101.886 24.4198 101.095 24.4198C99.8831 24.4198 98.8396 24.2445 97.9645 23.8938C97.0888 23.5264 96.3656 23.0337 95.7932 22.4158C95.2377 21.7978 94.8253 21.0714 94.5562 20.2363C94.3035 19.3846 94.1774 18.4661 94.1774 17.4807ZM107.306 7.61066L111.067 7.00944V10.8923H115.587V13.9986H111.067V18.6331C111.067 19.418 111.202 20.0443 111.471 20.5119C111.757 20.9795 112.321 21.2133 113.163 21.2133C113.567 21.2133 113.979 21.1799 114.4 21.1131C114.838 21.0296 115.233 20.9211 115.587 20.7875L116.117 23.6934C115.662 23.8771 115.157 24.0357 114.602 24.1693C114.046 24.3029 113.365 24.3697 112.557 24.3697C111.53 24.3697 110.68 24.2361 110.007 23.9689C109.334 23.685 108.795 23.3009 108.391 22.8166C107.987 22.3155 107.701 21.7143 107.533 21.0129C107.381 20.3115 107.306 19.5349 107.306 18.6831V7.61066ZM124.406 4.62958C125.113 4.62958 125.761 4.70474 126.35 4.85502C126.939 4.98866 127.394 5.12225 127.713 5.25585L126.981 8.23691C126.644 8.08663 126.274 7.97807 125.87 7.91127C125.483 7.82774 125.121 7.78602 124.784 7.78602C124.33 7.78602 123.943 7.85282 123.623 7.98641C123.32 8.10332 123.076 8.27033 122.891 8.48741C122.723 8.70453 122.596 8.96338 122.512 9.26399C122.445 9.5646 122.412 9.89028 122.412 10.241V10.8923H127.057V13.9986H122.412V24.0691H118.649V10.1909C118.649 8.48741 119.129 7.13469 120.089 6.13264C121.065 5.1306 122.504 4.62958 124.406 4.62958ZM140.636 23.6182C139.997 23.8019 139.172 23.9689 138.162 24.1192C137.152 24.2863 136.092 24.3697 134.981 24.3697C133.853 24.3697 132.911 24.2194 132.154 23.9188C131.413 23.6182 130.824 23.2007 130.386 22.6663C129.949 22.1151 129.637 21.4638 129.452 20.7123C129.267 19.9608 129.174 19.1341 129.174 18.2323V10.8923H132.936V17.7813C132.936 18.9838 133.096 19.8522 133.416 20.3866C133.736 20.9211 134.333 21.1883 135.209 21.1883C135.478 21.1883 135.764 21.1799 136.067 21.1632C136.37 21.1298 136.639 21.0964 136.874 21.063V10.8923H140.636V23.6182ZM149.469 24.3196C148.375 24.3029 147.483 24.186 146.793 23.9689C146.12 23.7518 145.581 23.4512 145.177 23.0671C144.79 22.6663 144.521 22.1903 144.369 21.6392C144.235 21.0714 144.168 20.4367 144.168 19.7353V5.23081L147.929 4.62958V18.9838C147.929 19.3178 147.954 19.6184 148.005 19.8856C148.056 20.1528 148.148 20.3783 148.283 20.562C148.434 20.7457 148.645 20.896 148.914 21.0129C149.183 21.1298 149.545 21.205 149.999 21.2384L149.469 24.3196Z" fill="#2B858B"/>
</svg>
