<svg width="21" height="21" viewBox="0 0 21 21" fill="none" xmlns="http://www.w3.org/2000/svg">
<path d="M10.5 20C15.7467 20 20 15.7467 20 10.5C20 5.25329 15.7467 1 10.5 1C5.25329 1 1 5.25329 1 10.5C1 15.7467 5.25329 20 10.5 20Z" stroke="#2B858B" stroke-width="2"/>
<path d="M12.5403 14.9589L12.234 15.2651L12.234 15.2652L12.1867 15.3124L8.44382 14.9589C8.35759 15.0453 8.31445 15.1474 8.31445 15.2652V16.1362C8.31445 16.2542 8.35757 16.3562 8.44382 16.4424C8.52993 16.5288 8.63197 16.572 8.75008 16.572H12.234C12.352 16.572 12.454 16.5288 12.5403 16.4424C12.6264 16.3564 12.6697 16.2543 12.6697 16.1362V15.2652C12.6697 15.1475 12.6265 15.0453 12.5403 14.9589ZM12.5403 14.9589C12.454 14.8727 12.3519 14.8297 12.234 14.8297M12.5403 14.9589L12.234 15.2647L12.2335 15.2652L12.234 14.8297M12.234 14.8297H11.7985V14.3297V7.92133C11.7985 7.80361 11.7554 7.70143 11.6693 7.61507L12.234 14.8297ZM11.2985 14.8297V15.3297H11.7985H12.1697V16.072H8.81445V15.3297H9.18557H9.68557V14.8297V9.22807V8.72807H9.18557H8.81445V7.98584H11.2985V14.8297Z" fill="#2B858B" stroke="#2B858B"/>
<path d="M11.3658 5.40702C11.3658 5.93897 10.9346 6.3702 10.4026 6.3702C9.87068 6.3702 9.43945 5.93897 9.43945 5.40702C9.43945 4.87508 9.87068 4.44385 10.4026 4.44385C10.9346 4.44385 11.3658 4.87508 11.3658 5.40702Z" fill="#2B858B" stroke="#2B858B"/>
</svg>
