<svg width="228" height="249" viewBox="0 0 228 249" fill="none" xmlns="http://www.w3.org/2000/svg">
<path d="M0 74.4611C0.566309 75.1567 1.19554 75.7538 1.61241 76.485C2.02928 77.2163 2.21018 78.0489 2.54052 78.9499L4.11361 78.865L4.15293 79.2978L1.50229 79.8784L1.10378 81.6011L2.83417 83.1293C2.53266 84.2084 3.29298 84.8164 4.73235 84.5425L5.47957 85.7475L4.16867 86.7828C4.53572 87.032 4.80838 87.3716 5.08892 87.3798C6.26611 87.4155 6.56761 88.0618 6.6384 89.1874C6.67773 89.8256 7.02643 90.8143 7.46951 90.9868C9.5119 91.7838 9.86846 93.6187 10.0703 95.4154C10.2381 96.9162 10.4636 98.2144 11.7011 99.1757C11.979 99.3921 11.9947 99.9645 12.1625 100.356C12.3303 100.748 12.4457 101.293 12.7262 101.416C16.1346 102.914 18.4942 105.798 21.0714 108.372C22.5187 109.816 24.0314 111.092 25.9873 111.604C26.6375 111.774 27.5263 111.848 28.0428 111.519C30.7065 109.813 33.6377 109.271 36.6685 109.093C37.6517 109.035 38.766 108.819 39.6102 109.191C43.4616 110.887 46.8883 110.221 50.4776 108.12C54.7721 105.606 59.6014 104.56 64.5671 103.848L64.3285 104.73C67.4039 104.097 68.8407 106.874 71.119 107.91C70.4478 109.279 70.8018 110.922 72.3119 111.979C73.8221 113.037 75.0491 111.462 76.3783 110.952C77.92 111.985 79.7211 111.774 80.3713 110.454L81.2339 111.412L82.3665 110.884C82.4845 111.044 82.5931 111.211 82.6916 111.385C83.1767 112.398 83.2448 113.97 85.0355 113.22C85.1378 113.179 85.6884 113.938 85.6543 113.976C85.0146 114.732 85.6674 115.304 85.8195 115.962C85.9715 116.619 86.1236 117.383 85.961 118.007C85.4576 119.925 84.8022 121.814 84.1782 123.8C85.3423 124.011 85.4078 124.726 85.3134 125.717C85.2505 126.355 85.5887 127.037 85.7932 127.886L83.958 128.026C83.2186 130.866 83.2186 130.866 82.1227 131.384C83.6434 134.029 84.6711 136.96 87.0124 139.052C88.7637 140.627 90.3683 142.382 91.9938 144.097C92.3801 144.521 92.6924 145.012 92.9167 145.548C93.677 147.296 93.6141 149.533 95.9894 150.385L94.6077 151.168C95.722 153.505 96.7681 155.802 97.9112 158.045C98.3989 159.001 98.5116 159.82 97.8089 160.672C97.2138 161.395 97.2846 162.11 97.7146 162.923C98.315 164.084 98.8288 165.298 99.3532 166.5C100.774 169.767 100.494 172.709 97.9348 175.322C97.0198 176.255 96.0681 177.321 95.6014 178.523C94.7572 180.714 94.2354 183.039 93.6377 185.326C93.4627 186.028 93.3859 186.752 93.4096 187.476C93.4489 189.073 93.5039 190.675 93.6953 192.255C93.7835 193.194 94.0509 194.105 94.4819 194.934C97.0303 199.401 99.6862 203.802 102.242 208.266C102.713 209.128 103.041 210.067 103.212 211.043C103.529 212.605 103.728 214.19 103.808 215.784C103.968 220.144 105.292 223.978 107.74 227.561C110.189 231.143 112.266 235.04 114.481 238.811C115.454 240.471 115.367 241.709 114.334 243.109C114.248 243.23 114.187 243.368 114.154 243.515C114.122 243.662 114.119 243.815 114.145 243.963C114.515 245.116 114.958 246.244 115.372 247.381L115.648 246.946C116.387 247.252 117.265 247.392 117.842 247.901C119.2 249.104 120.558 249.339 122.126 248.482C122.488 248.322 122.861 248.189 123.24 248.082C125.81 247.124 128.363 246.611 131.169 247.05C135.484 247.726 139.409 246.324 142.967 243.744C143.9 243.068 144.802 242.35 145.775 241.731C148.745 239.814 151.32 237.491 153.278 234.435C153.783 233.577 154.441 232.829 155.216 232.23C157.673 230.527 159.149 228.177 159.883 225.252C159.955 224.99 160.045 224.733 160.153 224.485C160.614 223.359 161.28 222.231 159.799 221.166C160.373 220.779 160.756 220.503 161.157 220.254C163.713 218.676 166.288 217.126 168.823 215.51C169.264 215.236 169.783 214.724 169.872 214.25C170.396 211.125 171.149 207.951 169.473 204.938C169.266 204.587 169.126 204.198 169.062 203.791C168.912 202.52 168.826 201.241 168.716 199.984C169.463 199.916 169.966 200.025 170.257 199.817C172.389 198.281 174.824 197.122 176.025 194.424C176.35 193.69 177.153 193.055 177.881 192.669C180.503 191.299 183.18 190.075 185.818 188.758C186.285 188.532 186.696 188.197 187.018 187.777C187.805 186.682 188.429 185.458 189.26 184.409C190.243 183.165 190.395 181.859 190.133 180.331C189.894 178.948 189.514 177.417 189.855 176.146C190.241 174.711 190.102 173.407 190.089 172.016C190.084 170.857 190.261 169.705 190.613 168.606C190.875 167.809 190.713 167.354 190.112 167.02C188.434 166.084 187.844 164.555 187.697 162.671C187.49 160.009 186.767 157.35 188.057 154.753C188.19 154.48 188.036 153.954 187.857 153.641C187.504 153.011 187.088 152.421 186.615 151.883C185.933 151.116 185.857 150.352 186.253 149.399C187.614 146.143 188.875 142.843 190.288 139.614C190.623 138.849 191.336 138.187 192.013 137.696C192.768 137.149 193.652 136.817 193.007 135.396C194.669 135.878 195.309 134.815 196.003 133.788C196.735 132.709 197.482 131.636 198.295 130.622C199.999 128.5 201.593 126.24 203.52 124.367C206.281 121.672 209.658 119.684 211.828 116.301C213.04 114.414 214.657 112.741 215.567 110.725C217.979 105.36 220.108 99.8576 222.337 94.4048C222.52 93.9922 222.636 93.5507 222.68 93.0984C222.819 90.9074 222.942 88.7164 223 86.5253C223 85.9776 222.816 85.0464 222.499 84.9259C221.975 84.726 221.215 84.9259 220.63 85.1505C219.353 85.6572 218.171 86.5199 216.86 86.8294C214.466 87.4072 211.865 87.1032 209.755 88.8204C209.652 88.9034 209.532 88.9609 209.405 88.9884C209.278 89.0159 209.146 89.0128 209.021 88.9793C207.327 87.9632 205.99 89.0231 204.642 89.8009C203.856 90.2528 203.389 90.0912 202.689 89.5435C200.927 88.1741 199.933 85.5558 196.871 85.9173C197.109 85.6773 197.358 85.4506 197.618 85.2381C199.732 83.8277 199.763 83.5018 197.93 81.5819C196.098 79.662 194.236 77.6737 192.338 75.7702C191.812 75.3058 191.232 74.9137 190.61 74.6035C189.512 73.9709 188.392 73.3793 187.115 72.6864L186.672 72.9904C185.236 69.7888 183.864 66.6912 182.438 63.6129C182.176 63.0651 181.796 62.416 181.308 62.1915C178.437 60.8659 177.265 58.4311 176.909 55.361C176.804 54.4599 176.515 53.5863 176.337 52.6934C176.198 52.0005 176.167 51.2747 175.967 50.6037C175.417 48.766 173.97 47.7527 172.491 46.8763C170.761 45.852 170.31 44.1677 169.971 42.3491C169.909 42.0193 169.779 41.7073 169.591 41.4344C168.805 40.3115 167.89 39.2707 167.184 38.0931C164.712 33.9849 162.958 29.3564 159.356 26.0425C159.106 25.7847 158.925 25.4626 158.831 25.1086C158.273 23.1915 157.749 21.2743 157.182 19.275C156.92 19.1326 156.43 19.0012 156.134 18.6698C155.124 17.5332 153.9 17.1662 152.434 17.7468C151.291 18.1987 150.2 18.8286 149.026 19.1573C148.111 19.4147 147.036 19.6119 146.158 19.3599C143.032 18.4589 139.92 17.629 136.638 17.7331C136.234 17.7331 135.812 17.3743 135.413 17.1498C134.829 16.8239 134.297 16.3281 133.675 16.1583C132.668 15.8845 131.604 15.8434 130.579 15.6298C130.238 15.5585 129.939 15.26 129.63 15.0491C129.079 14.6739 128.581 14.2029 127.981 13.9153C125.883 12.8992 124.048 13.7592 122.152 14.7177C121.001 15.3011 120.364 15.942 120.626 17.2812C120.986 19.1244 120.236 20.2363 118.568 20.7156C117.863 20.9183 116.906 21.3592 116.432 21.0607C113.978 19.5078 111.238 18.9519 108.53 18.2781C108.126 18.2028 107.746 18.0261 107.422 17.7632C107.098 17.5003 106.84 17.1592 106.671 16.7691C106.353 16.0844 106.002 15.1258 105.446 14.9067C103.658 14.2193 101.723 13.2772 99.9221 13.4333C96.6265 13.7071 94.1542 11.9133 91.4196 10.7274C90.4312 10.2974 90.3893 9.14163 91.2073 8.41311C92.1275 7.59149 93.0845 6.81642 94.0362 6.01122C93.3021 4.41726 91.4406 3.07801 93.3571 1.52787C92.7908 1.31698 92.0829 1.28138 91.7683 0.895213C90.932 -0.134562 90.0563 -0.175642 88.984 0.331029C86.7974 1.3608 84.5793 1.60455 82.2486 0.766491C81.7242 0.577516 80.9875 0.802096 80.4133 1.01572C79.1889 1.46761 78.0773 2.04823 76.6536 1.59634C73.0015 0.440578 69.4489 1.68945 66.0091 2.67541C63.1251 3.49704 60.4404 5.15947 57.6036 6.26867C56.7463 6.60279 55.3803 6.73699 54.7826 6.24675C54.5375 6.022 54.2472 5.85758 53.9332 5.76562C53.6192 5.67366 53.2895 5.65651 52.9683 5.71543C52.2735 5.79486 51.5813 5.89893 50.897 6.03861C50.0764 6.20841 49.5154 5.95097 49.012 5.21698C48.0235 3.77365 47.2921 3.72162 46.4846 5.25532C44.6126 8.81571 41.8387 11.1957 38.3176 12.7486C37.7161 13.0203 37.1402 13.3504 36.5977 13.7345C34.6078 15.1231 33.1894 16.9279 32.7673 19.4859C32.6126 20.4198 32.6074 21.5236 32.1145 22.2247C30.0327 25.2373 27.4267 27.6283 23.8374 28.4472C22.343 28.7868 21.2156 29.3975 20.4002 30.8244C19.6294 32.1938 18.7144 33.4372 17.2541 34.204C16.5022 34.6325 15.9047 35.3056 15.5525 36.1212C14.5589 38.5121 13.3004 40.5963 11.1689 42.0862C10.4846 42.5655 10.0494 43.4556 9.54336 44.1923C8.62835 45.5288 7.79986 46.9311 6.8429 48.232C5.532 50.0067 4.96045 51.7924 6.3369 53.8054C6.88747 54.6106 6.78785 55.4103 6.253 56.2018C5.46646 57.3685 5.23312 58.6256 5.41926 60.0771C5.60541 61.5287 5.82827 63.0898 5.41926 64.3934C4.28402 67.9538 3.32182 71.684 0.17566 74.0996C0.13109 74.127 0.110116 74.242 0 74.4611ZM216.181 173.141C215.942 174.303 215.688 175.204 215.58 176.127C215.394 177.688 214.416 178.841 213.09 179.074C212.324 180.679 211.779 182.281 210.166 183.132C209.875 183.286 209.702 183.757 209.558 184.118C209.451 184.463 209.377 184.818 209.335 185.178L208.069 184.661L207.424 186.304C206.619 186.304 205.998 186.194 205.426 186.326C204.322 186.581 203.242 186.956 202.162 187.317C201.8 187.438 201.297 187.591 201.163 187.865C200.172 189.999 198.615 191.929 199.066 194.591C199.275 195.794 199.066 197.078 199.328 198.264C199.779 200.406 198.945 201.915 197.558 203.32C195.025 205.886 194.15 209.041 194.629 212.662C194.808 213.787 194.868 214.93 194.808 216.069C194.687 217.54 195.227 218.446 196.512 218.865C197.069 219.062 197.662 219.123 198.245 219.043C199.624 218.821 200.983 218.481 202.309 218.027C203.011 217.763 203.603 217.25 203.981 216.578C207.154 210.034 210.274 203.461 213.341 196.859C214.015 195.405 214.39 193.797 214.914 192.266C215.116 191.68 215.239 190.938 215.648 190.585C216.435 189.911 216.605 189.139 216.556 188.18C216.494 187.451 216.494 186.718 216.556 185.989C216.6 185.606 216.896 185.252 217.08 184.893C217.366 185.14 217.654 185.381 217.932 185.636C218.084 185.795 218.225 185.964 218.357 186.142C218.619 185.425 219.046 184.817 218.965 184.296C218.404 180.643 219.88 176.494 216.181 173.141Z" fill="#FCC30B"/>
<path d="M0 74.4598C0.110116 74.2407 0.128467 74.1339 0.19139 74.0846C3.31658 71.669 4.28665 67.9306 5.435 64.3785C5.85186 63.0775 5.62377 61.4863 5.435 60.0622C5.24623 58.638 5.47957 57.3535 6.26873 56.1868C6.79309 55.3953 6.90058 54.5956 6.35263 53.7904C4.97618 51.7719 5.55298 49.9917 6.85863 48.217C7.81559 46.9161 8.6467 45.5139 9.55909 44.1773C10.0625 43.4406 10.4977 42.5505 11.1846 42.0712C13.3135 40.5814 14.5746 38.5108 15.5683 36.1062C15.9205 35.2907 16.5179 34.6175 17.2698 34.1891C18.7328 33.425 19.6478 32.1706 20.416 30.8095C21.2235 29.3853 22.3587 28.7746 23.8532 28.4322C27.4424 27.6106 30.0485 25.2196 32.1302 22.2097C32.6205 21.5004 32.6283 20.3967 32.783 19.471C33.2025 16.9239 34.6183 15.1164 36.6135 13.7196C37.156 13.3354 37.7318 13.0053 38.3334 12.7336C41.8545 11.1807 44.6257 8.79803 46.5003 5.24038C47.3078 3.70667 48.0393 3.75871 49.0277 5.20203C49.5311 5.93876 50.0922 6.1962 50.9128 6.02366C51.5971 5.88125 52.2918 5.77718 52.984 5.70049C53.3052 5.64157 53.635 5.65872 53.949 5.75067C54.263 5.84263 54.5532 6.00705 54.7983 6.23181C55.3934 6.72205 56.762 6.58785 57.6194 6.25372C60.4561 5.14452 63.1251 3.49031 66.0249 2.66046C69.4647 1.67451 73.0172 0.425635 76.6694 1.58139C78.093 2.03055 79.2047 1.45267 80.429 1.00077C81.0085 0.787151 81.7399 0.559833 82.2643 0.751546C84.5925 1.58961 86.8131 1.34586 88.9997 0.316084C90.072 -0.190587 90.9477 -0.146767 91.7841 0.880268C92.0987 1.26643 92.8066 1.30204 93.3729 1.51292C91.4563 3.06306 93.3178 4.40232 94.0519 5.99627C93.1002 6.80147 92.1432 7.57928 91.223 8.39817C90.405 9.12394 90.4365 10.2824 91.4354 10.7124C94.1673 11.8983 96.6423 13.7004 99.9379 13.4183C101.736 13.2649 103.671 14.2043 105.462 14.8918C106.018 15.1054 106.367 16.0694 106.686 16.7541C106.856 17.1442 107.114 17.4854 107.438 17.7483C107.761 18.0112 108.142 18.1879 108.545 18.2632C111.256 18.9369 113.993 19.4929 116.447 21.0458C116.922 21.347 117.876 20.9061 118.584 20.7007C120.252 20.2214 121.001 19.1095 120.642 17.2663C120.38 15.927 121.017 15.2862 122.168 14.7028C124.069 13.7415 125.902 12.8815 127.996 13.9003C128.586 14.1742 129.095 14.659 129.646 15.0342C129.955 15.2451 130.254 15.5436 130.595 15.6148C131.62 15.8312 132.692 15.8668 133.691 16.1434C134.31 16.3132 134.845 16.8062 135.429 17.1348C135.828 17.3594 136.25 17.7291 136.654 17.7182C139.936 17.6141 143.048 18.4467 146.173 19.345C147.052 19.597 148.127 19.4025 149.042 19.1423C150.214 18.8109 151.304 18.1838 152.45 17.7319C153.916 17.1512 155.14 17.5182 156.149 18.6548C156.443 18.9862 156.936 19.1177 157.198 19.2601C157.754 21.2676 158.278 23.1847 158.842 25.1019C158.935 25.4558 159.116 25.7779 159.366 26.0358C162.969 29.3579 164.723 33.9782 167.195 38.0863C167.9 39.264 168.813 40.3047 169.602 41.4276C169.79 41.7005 169.919 42.0125 169.982 42.3424C170.32 44.1582 170.768 45.8453 172.501 46.8695C173.98 47.7432 175.427 48.7566 175.978 50.597C176.18 51.268 176.209 51.991 176.348 52.6867C176.526 53.5795 176.814 54.4532 176.919 55.3542C177.276 58.4271 178.448 60.8591 181.319 62.1847C181.806 62.4093 182.194 63.0611 182.449 63.6061C183.875 66.6817 185.243 69.782 186.683 72.9836L187.126 72.6796C188.403 73.378 189.525 73.9696 190.621 74.5968C191.242 74.907 191.823 75.2991 192.349 75.7635C194.236 77.6724 196.071 79.6251 197.907 81.5642C199.742 83.5032 199.708 83.81 197.595 85.2204C197.338 85.4341 197.092 85.6617 196.858 85.9024C199.92 85.5409 200.914 88.1564 202.676 89.5285C203.378 90.0762 203.848 90.2378 204.629 89.7859C205.977 89.0054 207.314 87.9455 209.007 88.9643C209.133 88.9978 209.265 89.001 209.392 88.9735C209.519 88.9459 209.639 88.8885 209.742 88.8055C211.839 87.0855 214.461 87.3895 216.847 86.8144C218.158 86.4994 219.337 85.6422 220.617 85.1355C221.201 84.9027 221.954 84.7083 222.486 84.9109C222.806 85.0315 223.01 85.9544 222.987 86.5104C222.94 88.7014 222.806 90.8924 222.667 93.0834C222.623 93.5357 222.506 93.9772 222.324 94.3898C220.095 99.8427 217.966 105.345 215.554 110.71C214.644 112.734 213.027 114.399 211.815 116.286C209.645 119.669 206.268 121.657 203.507 124.352C201.58 126.231 199.986 128.487 198.282 130.607C197.469 131.621 196.709 132.694 195.99 133.773C195.295 134.8 194.656 135.863 192.993 135.381C193.638 136.802 192.755 137.131 192 137.681C191.321 138.177 190.608 138.84 190.275 139.599C188.859 142.828 187.6 146.128 186.24 149.384C185.841 150.337 185.92 151.101 186.602 151.868C187.075 152.406 187.491 152.996 187.844 153.626C188.02 153.939 188.177 154.47 188.044 154.738C186.754 157.335 187.477 159.997 187.684 162.656C187.831 164.549 188.421 166.069 190.099 167.005C190.697 167.339 190.854 167.794 190.6 168.591C190.248 169.69 190.071 170.842 190.075 172.001C190.091 173.392 190.227 174.696 189.842 176.131C189.501 177.404 189.881 178.933 190.12 180.316C190.382 181.844 190.23 183.15 189.247 184.394C188.416 185.443 187.792 186.67 187.005 187.762C186.683 188.182 186.272 188.517 185.805 188.743C183.164 190.06 180.482 191.284 177.868 192.654C177.139 193.035 176.337 193.675 176.012 194.409C174.822 197.107 172.383 198.266 170.244 199.802C169.953 200.013 169.458 199.901 168.702 199.969C168.813 201.229 168.899 202.508 169.049 203.776C169.113 204.183 169.253 204.572 169.46 204.923C171.133 207.961 170.373 211.121 169.859 214.235C169.78 214.709 169.261 215.216 168.81 215.495C166.275 217.111 163.703 218.661 161.144 220.239C160.743 220.485 160.357 220.764 159.786 221.151C161.267 222.213 160.599 223.342 160.14 224.47C160.03 224.719 159.938 224.976 159.864 225.24C159.128 228.165 157.654 230.514 155.198 232.218C154.423 232.816 153.765 233.565 153.26 234.423C151.315 237.496 148.74 239.821 145.767 241.738C144.802 242.36 143.89 243.074 142.959 243.751C139.406 246.331 135.479 247.733 131.161 247.057C128.356 246.618 125.802 247.131 123.233 248.089C122.853 248.196 122.481 248.329 122.118 248.489C120.545 249.343 119.192 249.111 117.834 247.908C117.257 247.399 116.382 247.259 115.64 246.952L115.365 247.388C114.948 246.251 114.507 245.123 114.138 243.97C114.111 243.822 114.114 243.669 114.147 243.522C114.179 243.375 114.24 243.237 114.326 243.115C115.359 241.713 115.446 240.475 114.473 238.818C112.258 235.044 110.181 231.169 107.732 227.568C105.284 223.966 103.973 220.146 103.8 215.791C103.72 214.197 103.521 212.612 103.205 211.05C103.033 210.074 102.705 209.135 102.235 208.273C99.6783 203.809 97.025 199.408 94.474 194.941C94.0431 194.112 93.7756 193.201 93.6875 192.262C93.4961 190.682 93.4437 189.077 93.4017 187.483C93.3781 186.759 93.4549 186.034 93.6298 185.333C94.2276 183.046 94.7467 180.718 95.5935 178.53C96.0576 177.325 97.0119 176.262 97.9269 175.328C100.486 172.716 100.766 169.774 99.3453 166.507C98.821 165.302 98.2966 164.091 97.7067 162.93C97.2872 162.108 97.2033 161.402 97.8011 160.679C98.5037 159.827 98.391 159.008 97.9033 158.052C96.7602 155.809 95.7141 153.511 94.5999 151.175L95.9711 150.406C93.5957 149.554 93.6587 147.316 92.8983 145.569C92.6741 145.033 92.3618 144.541 91.9754 144.117C90.3421 142.403 88.7375 140.647 86.994 139.073C84.6528 136.969 83.625 134.039 82.1044 131.404C83.2081 130.887 83.2081 130.887 83.9396 128.046L85.7749 127.907C85.5704 127.058 85.2322 126.376 85.2951 125.738C85.3895 124.757 85.3239 124.042 84.1599 123.821C84.7838 121.835 85.4393 119.953 85.9427 118.028C86.1079 117.401 85.9427 116.642 85.8011 115.982C85.6595 115.322 84.9962 114.752 85.6359 113.997C85.67 113.958 85.1116 113.2 85.0172 113.241C83.2265 113.988 83.1583 112.419 82.6733 111.406C82.5747 111.232 82.4661 111.065 82.3482 110.905L81.2365 111.425L80.374 110.466C79.7238 111.786 77.9226 111.997 76.381 110.962C75.0517 111.474 73.8142 113.027 72.3146 111.989C70.8149 110.951 70.4505 109.289 71.1216 107.919C68.8433 106.887 67.4065 104.11 64.3312 104.74L64.5697 103.858C59.6041 104.575 54.7747 105.619 50.4802 108.13C46.8909 110.231 43.4642 110.896 39.6128 109.201C38.7686 108.829 37.6543 109.045 36.6711 109.102C33.6403 109.283 30.7092 109.823 28.0454 111.529C27.5211 111.86 26.6401 111.786 25.9899 111.614C24.0341 111.099 22.5213 109.823 21.074 108.382C18.4942 105.813 16.1477 102.924 12.7288 101.426C12.4483 101.302 12.3277 100.738 12.1652 100.366C12.0026 99.9933 11.9816 99.4017 11.7037 99.1854C10.4689 98.2241 10.2408 96.9259 10.073 95.425C9.87371 93.6257 9.51452 91.7907 7.47214 90.9965C7.02905 90.8239 6.6856 89.8352 6.64103 89.1971C6.57024 88.0715 6.26873 87.4251 5.09154 87.3895C4.81101 87.3895 4.54096 87.0417 4.17129 86.7925L5.48219 85.7572L4.73497 84.5522C3.29561 84.826 2.53528 84.218 2.83679 83.139L1.1064 81.6107L1.50229 79.8771L4.15556 79.302L4.11623 78.8692L2.54315 78.9541C2.21542 78.0476 2.01879 77.1986 1.61503 76.4893C1.21127 75.7799 0.566309 75.1527 0 74.4598ZM162.512 138.785C163.891 138.536 163.753 136.761 165.215 137.347C166.356 137.805 165.976 138.687 166.107 139.467L166.471 139.59L167.198 138.005L169.911 136.934L169.825 136.496L168.252 135.66C168.673 135.331 169.11 135.024 169.562 134.743C170.349 134.315 170.747 133.696 170.65 132.763C170.485 131.201 170.913 130.087 172.596 129.898C172.685 129.896 172.77 129.86 172.834 129.797C172.976 129.575 173.097 129.334 173.212 129.098C172.95 129.027 172.688 128.86 172.441 128.909C172.102 129.014 171.776 129.159 171.468 129.342C171.015 128.605 170.742 127.805 170.2 127.389C169.657 126.973 168.876 126.984 168.055 126.77C167.717 126.959 167.116 127.592 166.592 127.537C164.702 127.307 163.53 128.052 163.184 130.002C162.921 131.434 162.56 132.856 162.447 134.299C162.334 135.742 162.486 137.213 162.512 138.785ZM154.574 141.088H154.133C153.931 142.198 153.305 143.069 153.648 144.482C154.028 146.046 153.512 147.823 153.59 149.496C153.622 150.419 153.91 151.313 154.419 152.068C155.824 153.947 157.198 155.796 157.473 158.266C157.657 159.909 158.784 160.295 160.378 160.547C159.88 158.721 159.529 157.042 158.947 155.456C158.563 154.472 158.002 153.574 157.295 152.81C156.508 151.942 155.24 151.375 156.432 149.904C156.465 149.845 156.487 149.78 156.495 149.712C156.504 149.645 156.499 149.576 156.482 149.51C155.855 146.704 155.22 143.897 154.579 141.088H154.574ZM170.231 163.368L169.492 163.546C169.444 164.072 169.306 164.609 169.366 165.121C169.576 166.879 169.89 168.627 170.087 170.388C170.139 170.842 170.087 171.459 169.825 171.779C168.923 172.891 168.957 174.049 169.326 175.339C169.673 176.514 169.945 177.71 170.142 178.922C170.373 180.439 171.361 180.811 172.832 181.074C172.475 179.269 172.197 177.632 171.817 176.024C171.511 174.75 171.568 173.411 171.982 172.171C172.31 171.111 172.263 169.892 172.224 168.747C172.182 167.927 172.005 167.121 171.699 166.364C171.303 165.326 170.734 164.365 170.236 163.368H170.231ZM108.113 138.637C107.924 136.446 109.424 135.373 110.672 134.116C112.331 132.431 114.006 130.761 115.64 129.052C115.954 128.723 116.392 128.137 116.295 127.83C115.64 125.702 116.765 124.607 118.296 123.678C118.372 123.632 118.382 123.47 118.432 123.339C115.881 123.612 115.532 126.042 114.277 127.652L114.667 124.163C114.009 126.239 113.805 128.507 112.832 130.333C111.82 132.25 110.074 133.721 108.637 135.386C108.61 135.422 108.58 135.456 108.548 135.488C107.588 136.345 107.528 137.391 108.118 138.637H108.113ZM50.0738 100.486C53.1072 100.935 52.3784 101.752 51.6941 103.472L50.3832 103.285L50.3176 103.521L52.5488 104.753L53.2095 96.8355L52.984 96.7917L52.3364 99.0731L49.0067 95.0444L48.0996 96.2166C48.5165 96.778 48.8861 97.271 49.2427 97.7557C49.5993 98.2405 49.9453 98.7116 50.3412 99.1443C50.5943 99.3583 50.8696 99.542 51.1619 99.692L50.0738 100.486ZM100.318 79.1842C99.4266 76.8946 99.4266 76.8946 98.0764 77.7874L100.58 82.7802L104.618 80.6275L101.246 79.2335L101.351 78.861L100.318 79.1842ZM179.313 119.389L177.771 111.099C176.002 114.155 176.466 116.661 179.313 119.389V119.389ZM119.376 122.876L128.846 120.685L128.759 120.298C125.613 120.663 122.247 120.03 119.376 122.876ZM161.765 119.685C158.771 121.676 158.074 122.78 158.742 124.508C160.292 123.314 161.826 122.183 161.765 119.696V119.685ZM13.4892 72.8193C12.8757 69.5684 10.6262 66.2846 6.93467 67.8895C7.48524 67.9498 7.82084 68.0785 8.10661 68.0018C9.35721 67.6595 10.1359 68.1771 10.8176 69.2644C11.5464 70.4092 12.4457 71.4417 13.4892 72.8193ZM150.397 163.374C151.834 163.42 152.911 162.086 153.003 160.254C150.607 161.172 150.24 161.596 150.397 163.374ZM115.176 137.985L115.543 138.035L116.822 136.09C115.448 135.816 116.19 134.995 116.377 134.25C115.572 134.266 114.756 134.132 114.785 135.217C114.809 136.145 115.037 137.065 115.176 137.985V137.985ZM162.106 42.5094L161.65 42.4875L161.125 46.3601L163.079 45.8589L162.106 42.5094ZM145.209 193.262L149.744 189.23C147.227 188.965 146.362 191.301 145.209 193.262ZM68.0279 91.777C68.9744 89.5258 68.9901 88.3508 68.2639 87.8715C68.1249 88.2358 68.0672 88.7151 67.8103 88.9917C66.8979 89.9804 67.1627 90.8321 68.0279 91.777ZM152.712 137.199L153.074 137.391L154.768 135.814L153.415 133.962L152.712 137.199ZM33.9445 99.4045C32.492 101.179 32.568 101.694 34.3718 102.751L34.7546 101.152H33.5722L33.9445 99.4045ZM159.977 46.5464C158.472 46.6012 157.418 48.0801 157.253 50.2026L159.977 46.5464ZM179.945 85.5025L180.304 85.3711L180.671 82.9062L178.836 83.7579L179.945 85.5025ZM134.268 123.363L134.459 123.054L130.482 120.205L130.22 120.624L134.268 123.363ZM74.391 104.301C75.4765 100.82 75.5603 99.9002 75.0045 99.147L74.391 104.301ZM163.123 156.338C162.651 157.888 163.063 158.255 164.906 157.981L163.123 156.338ZM167.911 123.957C167.591 122.314 167.255 122.207 165.853 123.3L167.911 123.957ZM156.613 160.002C155.174 159.331 154.689 159.687 154.684 161.259L156.613 160.002Z" fill="#FCC30B"/>
<path d="M216.18 173.14C219.882 176.495 218.403 180.641 218.962 184.295C219.041 184.815 218.603 185.423 218.354 186.141C218.231 185.96 218.098 185.787 217.955 185.623C217.677 185.368 217.389 185.127 217.103 184.881C216.92 185.248 216.626 185.601 216.579 185.976C216.517 186.705 216.517 187.439 216.579 188.167C216.628 189.126 216.455 189.898 215.672 190.572C215.263 190.925 215.147 191.668 214.937 192.254C214.413 193.782 214.046 195.392 213.364 196.847C210.302 203.449 207.182 210.022 204.005 216.566C203.626 217.238 203.034 217.75 202.332 218.015C201.006 218.469 199.647 218.808 198.268 219.031C197.685 219.111 197.092 219.05 196.535 218.853C195.253 218.434 194.7 217.527 194.831 216.056C194.891 214.917 194.831 213.775 194.653 212.649C194.181 209.026 195.051 205.874 197.581 203.307C198.968 201.902 199.802 200.391 199.351 198.252C199.089 197.066 199.296 195.787 199.089 194.579C198.627 191.917 200.185 189.986 201.186 187.853C201.32 187.565 201.826 187.423 202.185 187.305C203.265 186.943 204.345 186.571 205.449 186.313C206.021 186.182 206.642 186.291 207.447 186.291L208.092 184.648L209.358 185.166C209.4 184.806 209.475 184.451 209.581 184.106C209.725 183.744 209.898 183.284 210.189 183.12C211.797 182.268 212.347 180.655 213.113 179.061C214.439 178.828 215.417 177.678 215.603 176.114C215.687 175.202 215.939 174.298 216.18 173.14Z" fill="#FCC30B"/>
<ellipse cx="172.5" cy="136" rx="6.5" ry="2" fill="#C39A14"/>
<path fill-rule="evenodd" clip-rule="evenodd" d="M174.324 134.108C178.391 129.616 183 124.524 183 119.5C183 113.701 178.299 109 172.5 109C166.701 109 162 113.701 162 119.5C162 124.25 165.324 127.998 169.575 132.792C170.035 133.311 170.507 133.843 170.987 134.39C171.791 135.307 173.225 135.323 174.044 134.418C174.137 134.315 174.231 134.211 174.324 134.108ZM172.698 124.057C175.324 124.057 177.453 121.928 177.453 119.302C177.453 116.676 175.324 114.547 172.698 114.547C170.072 114.547 167.943 116.676 167.943 119.302C167.943 121.928 170.072 124.057 172.698 124.057Z" fill="white"/>
<rect x="179" y="103" width="49" height="16" rx="8" fill="#55C6C6"/>
<path d="M193.036 115C192.828 114.68 192.588 114.344 192.316 113.992C192.044 113.64 191.756 113.3 191.452 112.972C191.156 112.644 190.848 112.332 190.528 112.036C190.208 111.74 189.892 111.484 189.58 111.268V115H188.068V106.684H189.58V110.116C189.844 109.852 190.12 109.572 190.408 109.276C190.696 108.972 190.98 108.668 191.26 108.364C191.548 108.052 191.82 107.752 192.076 107.464C192.332 107.176 192.564 106.916 192.772 106.684H194.584C194.32 106.988 194.04 107.304 193.744 107.632C193.448 107.96 193.144 108.292 192.832 108.628C192.52 108.956 192.204 109.284 191.884 109.612C191.572 109.94 191.264 110.252 190.96 110.548C191.296 110.804 191.636 111.104 191.98 111.448C192.332 111.784 192.676 112.148 193.012 112.54C193.348 112.924 193.668 113.328 193.972 113.752C194.284 114.168 194.568 114.584 194.824 115H193.036ZM195.183 111.892C195.183 111.34 195.263 110.856 195.423 110.44C195.591 110.024 195.811 109.68 196.083 109.408C196.355 109.128 196.667 108.92 197.019 108.784C197.371 108.64 197.731 108.568 198.099 108.568C198.963 108.568 199.635 108.836 200.115 109.372C200.603 109.908 200.847 110.708 200.847 111.772C200.847 111.852 200.843 111.944 200.835 112.048C200.835 112.144 200.831 112.232 200.823 112.312H196.683C196.723 112.816 196.899 113.208 197.211 113.488C197.531 113.76 197.991 113.896 198.591 113.896C198.943 113.896 199.263 113.864 199.551 113.8C199.847 113.736 200.079 113.668 200.247 113.596L200.439 114.784C200.359 114.824 200.247 114.868 200.103 114.916C199.967 114.956 199.807 114.992 199.623 115.024C199.447 115.064 199.255 115.096 199.047 115.12C198.839 115.144 198.627 115.156 198.411 115.156C197.859 115.156 197.379 115.076 196.971 114.916C196.563 114.748 196.227 114.52 195.963 114.232C195.699 113.936 195.503 113.592 195.375 113.2C195.247 112.8 195.183 112.364 195.183 111.892ZM199.395 111.244C199.395 111.044 199.367 110.856 199.311 110.68C199.255 110.496 199.171 110.34 199.059 110.212C198.955 110.076 198.823 109.972 198.663 109.9C198.511 109.82 198.327 109.78 198.111 109.78C197.887 109.78 197.691 109.824 197.523 109.912C197.355 109.992 197.211 110.1 197.091 110.236C196.979 110.372 196.891 110.528 196.827 110.704C196.763 110.88 196.719 111.06 196.695 111.244H199.395ZM202.387 108.928C202.667 108.848 203.031 108.772 203.479 108.7C203.927 108.628 204.423 108.592 204.967 108.592C205.479 108.592 205.907 108.664 206.251 108.808C206.595 108.944 206.867 109.14 207.067 109.396C207.275 109.644 207.419 109.948 207.499 110.308C207.587 110.66 207.631 111.048 207.631 111.472V115H206.179V111.7C206.179 111.364 206.155 111.08 206.107 110.848C206.067 110.608 205.995 110.416 205.891 110.272C205.795 110.12 205.659 110.012 205.483 109.948C205.315 109.876 205.107 109.84 204.859 109.84C204.675 109.84 204.483 109.852 204.283 109.876C204.083 109.9 203.935 109.92 203.839 109.936V115H202.387V108.928ZM214.343 108.724C213.695 111.108 212.943 113.268 212.087 115.204C211.927 115.564 211.763 115.872 211.595 116.128C211.427 116.384 211.239 116.596 211.031 116.764C210.823 116.932 210.591 117.052 210.335 117.124C210.079 117.204 209.783 117.244 209.447 117.244C209.223 117.244 208.999 117.22 208.775 117.172C208.559 117.124 208.395 117.072 208.283 117.016L208.547 115.852C208.835 115.964 209.119 116.02 209.399 116.02C209.775 116.02 210.067 115.928 210.275 115.744C210.491 115.568 210.679 115.292 210.839 114.916C210.383 114.036 209.943 113.076 209.519 112.036C209.103 110.996 208.731 109.892 208.403 108.724H209.951C210.031 109.06 210.127 109.424 210.239 109.816C210.359 110.208 210.487 110.608 210.623 111.016C210.759 111.416 210.903 111.816 211.055 112.216C211.207 112.616 211.359 112.988 211.511 113.332C211.767 112.62 212.007 111.864 212.231 111.064C212.455 110.256 212.659 109.476 212.843 108.724H214.343ZM217.65 113.98C218.098 113.98 218.438 113.956 218.67 113.908V112.3C218.59 112.276 218.474 112.252 218.322 112.228C218.17 112.204 218.002 112.192 217.818 112.192C217.658 112.192 217.494 112.204 217.326 112.228C217.166 112.252 217.018 112.296 216.882 112.36C216.754 112.424 216.65 112.516 216.57 112.636C216.49 112.748 216.45 112.892 216.45 113.068C216.45 113.412 216.558 113.652 216.774 113.788C216.99 113.916 217.282 113.98 217.65 113.98ZM217.53 108.568C218.01 108.568 218.414 108.628 218.742 108.748C219.07 108.868 219.33 109.036 219.522 109.252C219.722 109.468 219.862 109.732 219.942 110.044C220.03 110.348 220.074 110.684 220.074 111.052V114.856C219.85 114.904 219.51 114.96 219.054 115.024C218.606 115.096 218.098 115.132 217.53 115.132C217.154 115.132 216.81 115.096 216.498 115.024C216.186 114.952 215.918 114.836 215.694 114.676C215.478 114.516 215.306 114.308 215.178 114.052C215.058 113.796 214.998 113.48 214.998 113.104C214.998 112.744 215.066 112.44 215.202 112.192C215.346 111.944 215.538 111.744 215.778 111.592C216.018 111.432 216.294 111.32 216.606 111.256C216.926 111.184 217.258 111.148 217.602 111.148C217.762 111.148 217.93 111.16 218.106 111.184C218.282 111.2 218.47 111.232 218.67 111.28V111.04C218.67 110.872 218.65 110.712 218.61 110.56C218.57 110.408 218.498 110.276 218.394 110.164C218.298 110.044 218.166 109.952 217.998 109.888C217.838 109.824 217.634 109.792 217.386 109.792C217.05 109.792 216.742 109.816 216.462 109.864C216.182 109.912 215.954 109.968 215.778 110.032L215.598 108.856C215.782 108.792 216.05 108.728 216.402 108.664C216.754 108.6 217.13 108.568 217.53 108.568Z" fill="white"/>
</svg>
