<svg width="20" height="20" viewBox="0 0 20 20" fill="none" xmlns="http://www.w3.org/2000/svg">
<path d="M16.5955 8.07683H16.2058V6.25292C16.2058 2.87944 13.5287 0.0613889 10.1827 0.00123271C10.0912 -0.000410903 9.90856 -0.000410903 9.81718 0.00123271C6.47107 0.0613889 3.79404 2.87944 3.79404 6.25292V8.07683H3.4043C2.80372 8.07683 2.31384 8.69655 2.31384 9.46194V18.61C2.31384 19.3745 2.80372 20 3.40434 20H16.5955C17.196 20 17.686 19.3745 17.686 18.61V9.46194C17.686 8.6966 17.1961 8.07683 16.5955 8.07683ZM11.2357 14.0267V16.7908C11.2357 17.1074 10.9707 17.3752 10.654 17.3752H9.34591C9.02911 17.3752 8.76411 17.1074 8.76411 16.7908V14.0267C8.45688 13.7242 8.27802 13.3061 8.27802 12.8435C8.27802 11.9668 8.95564 11.2136 9.81722 11.1788C9.90852 11.1751 10.0914 11.1751 10.1827 11.1788C11.0443 11.2136 11.7219 11.9668 11.7219 12.8435C11.7218 13.3061 11.543 13.7242 11.2357 14.0267ZM13.6372 8.07683H10.1827H9.81718H6.36263V6.25292C6.36263 4.24339 7.99573 2.58183 9.9999 2.58183C12.0041 2.58183 13.6373 4.24339 13.6373 6.25292V8.07683H13.6372Z" fill="white"/>
</svg>
