<svg width="30" height="30" viewBox="0 0 30 30" fill="none" xmlns="http://www.w3.org/2000/svg">
<path d="M29.8179 16.3979C29.9209 16.3979 30.0058 16.4887 29.9936 16.5916C29.1694 24.1367 22.7696 29.9998 15.0002 29.9998C7.23686 29.9998 0.837088 24.1367 0.0128751 16.5916C0.000754296 16.4887 0.0855998 16.3979 0.188626 16.3979H29.8179Z" fill="#55C6C6"/>
<path d="M3.84868 5.38582V13.5421C3.84868 13.6389 3.76989 13.7115 3.67899 13.7115H0.176079C0.0730522 13.7115 -0.00573291 13.6208 0.000327479 13.5179C0.321528 10.3897 1.60027 7.53986 3.54566 5.27086C3.64868 5.14985 3.84868 5.22851 3.84868 5.38582Z" fill="#2B858B"/>
<path d="M10.3872 0.967937V13.5412C10.3872 13.638 10.3084 13.7106 10.2175 13.7106H6.71461C6.61765 13.7106 6.54492 13.632 6.54492 13.5412V2.69237C6.54492 2.63792 6.57522 2.58346 6.62371 2.54716C7.70852 1.81503 8.89635 1.22206 10.163 0.798519C10.266 0.762215 10.3872 0.846924 10.3872 0.967937Z" fill="#2B858B"/>
<path d="M16.9282 0.27833V13.5414C16.9282 13.6382 16.8494 13.7108 16.7585 13.7108H13.2556C13.1587 13.7108 13.0859 13.6321 13.0859 13.5414V0.27833C13.0859 0.193621 13.1465 0.121013 13.2314 0.108912C13.8132 0.036304 14.4071 0 15.001 0C15.601 0 16.1949 0.036304 16.7828 0.108912C16.8676 0.121013 16.9282 0.193621 16.9282 0.27833Z" fill="#2B858B"/>
<path d="M23.4673 2.69237V13.5412C23.4673 13.638 23.3885 13.7106 23.2976 13.7106H19.7947C19.6977 13.7106 19.625 13.632 19.625 13.5412V0.967937C19.625 0.846924 19.7462 0.762215 19.8553 0.798519C21.1219 1.22206 22.3098 1.81503 23.3946 2.54716C23.437 2.58346 23.4673 2.63792 23.4673 2.69237Z" fill="#2B858B"/>
<path d="M29.8228 13.7118H26.3259C26.229 13.7118 26.1562 13.6332 26.1562 13.5424V5.39217C26.1562 5.23485 26.3562 5.1562 26.4593 5.27721C28.4047 7.54621 29.6834 10.39 29.9985 13.5182C30.0107 13.6211 29.9258 13.7118 29.8228 13.7118Z" fill="#2B858B"/>
</svg>
