<svg width="21" height="22" viewBox="0 0 21 22" fill="none" xmlns="http://www.w3.org/2000/svg">
<path d="M19.877 22H0.523104C0.234006 22 0 21.7615 0 21.4667V18.8196C0 16.7219 1.9099 15.0127 4.26689 14.9913L10.1147 14.0081C10.4034 13.9565 10.6695 14.157 10.716 14.4471C10.763 14.7378 10.5704 15.0121 10.2854 15.0601L4.39616 16.0507C4.36804 16.0554 4.33938 16.058 4.31088 16.058C2.51055 16.0579 1.04605 17.2968 1.04605 18.8196V20.9334H19.3538V18.8196C19.3538 17.2968 17.8893 16.0579 16.0891 16.0579C15.8 16.0579 15.566 15.8194 15.566 15.5246C15.566 15.2298 15.7999 14.9913 16.0891 14.9913C18.4659 14.9913 20.3999 16.7088 20.3999 18.8195V21.4666C20.4001 21.7614 20.1661 22 19.877 22Z" fill="white"/>
<path d="M13.0242 11.9997H7.37506C6.17359 11.9997 5.19971 11.024 5.19971 9.8204V5.14524C5.19971 2.52442 7.32048 0.39978 9.93652 0.39978H10.4629C13.0789 0.39978 15.1997 2.52442 15.1997 5.14524V9.8204C15.1996 11.024 14.2257 11.9997 13.0242 11.9997Z" fill="#2B858B"/>
<path d="M12.9605 12.3999H7.43999C5.98462 12.3999 4.80029 11.2102 4.80029 9.74802V5.16664C4.80029 2.31786 7.10747 0 9.94312 0H10.4574C13.2931 0 15.6002 2.31786 15.6002 5.16664V9.74802C15.6002 11.2101 14.4159 12.3999 12.9605 12.3999ZM9.94312 1.03337C7.67451 1.03337 5.8289 2.88753 5.8289 5.16664V9.74802C5.8289 10.6405 6.55158 11.3666 7.43999 11.3666H12.9605C13.849 11.3666 14.5716 10.6405 14.5716 9.74802V5.16664C14.5716 2.88753 12.726 1.03337 10.4574 1.03337H9.94312Z" fill="white"/>
</svg>
