<svg width="223" height="249" viewBox="0 0 223 249" fill="none" xmlns="http://www.w3.org/2000/svg">
<path d="M0 74.4611C0.566309 75.1567 1.19554 75.7538 1.61241 76.485C2.02928 77.2163 2.21018 78.0489 2.54052 78.9499L4.11361 78.865L4.15293 79.2978L1.50229 79.8784L1.10378 81.6011L2.83417 83.1293C2.53266 84.2084 3.29298 84.8164 4.73235 84.5425L5.47957 85.7475L4.16867 86.7828C4.53572 87.032 4.80838 87.3716 5.08892 87.3798C6.26611 87.4155 6.56761 88.0618 6.6384 89.1874C6.67773 89.8256 7.02643 90.8143 7.46951 90.9868C9.5119 91.7838 9.86846 93.6187 10.0703 95.4154C10.2381 96.9162 10.4636 98.2144 11.7011 99.1757C11.979 99.3921 11.9947 99.9645 12.1625 100.356C12.3303 100.748 12.4457 101.293 12.7262 101.416C16.1346 102.914 18.4942 105.798 21.0714 108.372C22.5187 109.816 24.0314 111.092 25.9873 111.604C26.6375 111.774 27.5263 111.848 28.0428 111.519C30.7065 109.813 33.6377 109.271 36.6685 109.093C37.6517 109.035 38.766 108.819 39.6102 109.191C43.4616 110.887 46.8883 110.221 50.4776 108.12C54.7721 105.606 59.6014 104.56 64.5671 103.848L64.3285 104.73C67.4039 104.097 68.8407 106.874 71.119 107.91C70.4478 109.279 70.8018 110.922 72.3119 111.979C73.8221 113.037 75.0491 111.462 76.3783 110.952C77.92 111.985 79.7211 111.774 80.3713 110.454L81.2339 111.412L82.3665 110.884C82.4845 111.044 82.5931 111.211 82.6916 111.385C83.1767 112.398 83.2448 113.97 85.0355 113.22C85.1378 113.179 85.6884 113.938 85.6543 113.976C85.0146 114.732 85.6674 115.304 85.8195 115.962C85.9715 116.619 86.1236 117.383 85.961 118.007C85.4576 119.925 84.8022 121.814 84.1782 123.8C85.3423 124.011 85.4078 124.726 85.3134 125.717C85.2505 126.355 85.5887 127.037 85.7932 127.886L83.958 128.026C83.2186 130.866 83.2186 130.866 82.1227 131.384C83.6434 134.029 84.6711 136.96 87.0124 139.052C88.7637 140.627 90.3683 142.382 91.9938 144.097C92.3801 144.521 92.6924 145.012 92.9167 145.548C93.677 147.296 93.6141 149.533 95.9894 150.385L94.6077 151.168C95.722 153.505 96.7681 155.802 97.9112 158.045C98.3989 159.001 98.5116 159.82 97.8089 160.672C97.2138 161.395 97.2846 162.11 97.7146 162.923C98.315 164.084 98.8288 165.298 99.3532 166.5C100.774 169.767 100.494 172.709 97.9348 175.322C97.0198 176.255 96.0681 177.321 95.6014 178.523C94.7572 180.714 94.2354 183.039 93.6377 185.326C93.4627 186.028 93.3859 186.752 93.4096 187.476C93.4489 189.073 93.5039 190.675 93.6953 192.255C93.7835 193.194 94.0509 194.105 94.4819 194.934C97.0303 199.401 99.6862 203.802 102.242 208.266C102.713 209.128 103.041 210.067 103.212 211.043C103.529 212.605 103.728 214.19 103.808 215.784C103.968 220.144 105.292 223.978 107.74 227.561C110.189 231.143 112.266 235.04 114.481 238.811C115.454 240.471 115.367 241.709 114.334 243.109C114.248 243.23 114.187 243.368 114.154 243.515C114.122 243.662 114.119 243.815 114.145 243.963C114.515 245.116 114.958 246.244 115.372 247.381L115.648 246.946C116.387 247.252 117.265 247.392 117.842 247.901C119.2 249.104 120.558 249.339 122.126 248.482C122.488 248.322 122.861 248.189 123.24 248.082C125.81 247.124 128.363 246.611 131.169 247.05C135.484 247.726 139.409 246.324 142.967 243.744C143.9 243.068 144.802 242.35 145.775 241.731C148.745 239.814 151.32 237.491 153.278 234.435C153.783 233.577 154.441 232.829 155.216 232.23C157.673 230.527 159.149 228.177 159.883 225.252C159.955 224.99 160.045 224.733 160.153 224.485C160.614 223.359 161.28 222.231 159.799 221.166C160.373 220.779 160.756 220.503 161.157 220.254C163.713 218.676 166.288 217.126 168.823 215.51C169.264 215.236 169.783 214.724 169.872 214.25C170.396 211.125 171.149 207.951 169.473 204.938C169.266 204.587 169.126 204.198 169.062 203.791C168.912 202.52 168.826 201.241 168.716 199.984C169.463 199.916 169.966 200.025 170.257 199.817C172.389 198.281 174.824 197.122 176.025 194.424C176.35 193.69 177.153 193.055 177.881 192.669C180.503 191.299 183.18 190.075 185.818 188.758C186.285 188.532 186.696 188.197 187.018 187.777C187.805 186.682 188.429 185.458 189.26 184.409C190.243 183.165 190.395 181.859 190.133 180.331C189.894 178.948 189.514 177.417 189.855 176.146C190.241 174.711 190.102 173.407 190.089 172.016C190.084 170.857 190.261 169.705 190.613 168.606C190.875 167.809 190.713 167.354 190.112 167.02C188.434 166.084 187.844 164.555 187.697 162.671C187.49 160.009 186.767 157.35 188.057 154.753C188.19 154.48 188.036 153.954 187.857 153.641C187.504 153.011 187.088 152.421 186.615 151.883C185.933 151.116 185.857 150.352 186.253 149.399C187.614 146.143 188.875 142.843 190.288 139.614C190.623 138.849 191.336 138.187 192.013 137.696C192.768 137.149 193.652 136.817 193.007 135.396C194.669 135.878 195.309 134.815 196.003 133.788C196.735 132.709 197.482 131.636 198.295 130.622C199.999 128.5 201.593 126.24 203.52 124.367C206.281 121.672 209.658 119.684 211.828 116.301C213.04 114.414 214.657 112.741 215.567 110.725C217.979 105.36 220.108 99.8576 222.337 94.4048C222.52 93.9922 222.636 93.5507 222.68 93.0984C222.819 90.9074 222.942 88.7164 223 86.5253C223 85.9776 222.816 85.0464 222.499 84.9259C221.975 84.726 221.215 84.9259 220.63 85.1505C219.353 85.6572 218.171 86.5199 216.86 86.8294C214.466 87.4072 211.865 87.1032 209.755 88.8204C209.652 88.9034 209.532 88.9609 209.405 88.9884C209.278 89.0159 209.146 89.0128 209.021 88.9793C207.327 87.9632 205.99 89.0231 204.642 89.8009C203.856 90.2528 203.389 90.0912 202.689 89.5435C200.927 88.1741 199.933 85.5558 196.871 85.9173C197.109 85.6773 197.358 85.4506 197.618 85.2381C199.732 83.8277 199.763 83.5018 197.93 81.5819C196.098 79.662 194.236 77.6737 192.338 75.7702C191.812 75.3058 191.232 74.9137 190.61 74.6035C189.512 73.9709 188.392 73.3793 187.115 72.6864L186.672 72.9904C185.236 69.7888 183.864 66.6912 182.438 63.6129C182.176 63.0651 181.796 62.416 181.308 62.1915C178.437 60.8659 177.265 58.4311 176.909 55.361C176.804 54.4599 176.515 53.5863 176.337 52.6934C176.198 52.0005 176.167 51.2747 175.967 50.6037C175.417 48.766 173.97 47.7527 172.491 46.8763C170.761 45.852 170.31 44.1677 169.971 42.3491C169.909 42.0193 169.779 41.7073 169.591 41.4344C168.805 40.3115 167.89 39.2707 167.184 38.0931C164.712 33.9849 162.958 29.3564 159.356 26.0425C159.106 25.7847 158.925 25.4626 158.831 25.1086C158.273 23.1915 157.749 21.2743 157.182 19.275C156.92 19.1326 156.43 19.0012 156.134 18.6698C155.124 17.5332 153.9 17.1662 152.434 17.7468C151.291 18.1987 150.2 18.8286 149.026 19.1573C148.111 19.4147 147.036 19.6119 146.158 19.3599C143.032 18.4589 139.92 17.629 136.638 17.7331C136.234 17.7331 135.812 17.3743 135.413 17.1498C134.829 16.8239 134.297 16.3281 133.675 16.1583C132.668 15.8845 131.604 15.8434 130.579 15.6298C130.238 15.5585 129.939 15.26 129.63 15.0491C129.079 14.6739 128.581 14.2029 127.981 13.9153C125.883 12.8992 124.048 13.7592 122.152 14.7177C121.001 15.3011 120.364 15.942 120.626 17.2812C120.986 19.1244 120.236 20.2363 118.568 20.7156C117.863 20.9183 116.906 21.3592 116.432 21.0607C113.978 19.5078 111.238 18.9519 108.53 18.2781C108.126 18.2028 107.746 18.0261 107.422 17.7632C107.098 17.5003 106.84 17.1592 106.671 16.7691C106.353 16.0844 106.002 15.1258 105.446 14.9067C103.658 14.2193 101.723 13.2772 99.9221 13.4333C96.6265 13.7071 94.1542 11.9133 91.4196 10.7274C90.4312 10.2974 90.3893 9.14163 91.2073 8.41311C92.1275 7.59149 93.0845 6.81642 94.0362 6.01122C93.3021 4.41726 91.4406 3.07801 93.3571 1.52787C92.7908 1.31698 92.0829 1.28138 91.7683 0.895213C90.932 -0.134562 90.0563 -0.175642 88.984 0.331029C86.7974 1.3608 84.5793 1.60455 82.2486 0.766491C81.7242 0.577516 80.9875 0.802096 80.4133 1.01572C79.1889 1.46761 78.0773 2.04823 76.6536 1.59634C73.0015 0.440578 69.4489 1.68945 66.0091 2.67541C63.1251 3.49704 60.4404 5.15947 57.6036 6.26867C56.7463 6.60279 55.3803 6.73699 54.7826 6.24675C54.5375 6.022 54.2472 5.85758 53.9332 5.76562C53.6192 5.67366 53.2895 5.65651 52.9683 5.71543C52.2735 5.79486 51.5813 5.89893 50.897 6.03861C50.0764 6.20841 49.5154 5.95097 49.012 5.21698C48.0235 3.77365 47.2921 3.72162 46.4846 5.25532C44.6126 8.81571 41.8387 11.1957 38.3176 12.7486C37.7161 13.0203 37.1402 13.3504 36.5977 13.7345C34.6078 15.1231 33.1894 16.9279 32.7673 19.4859C32.6126 20.4198 32.6074 21.5236 32.1145 22.2247C30.0327 25.2373 27.4267 27.6283 23.8374 28.4472C22.343 28.7868 21.2156 29.3975 20.4002 30.8244C19.6294 32.1938 18.7144 33.4372 17.2541 34.204C16.5022 34.6325 15.9047 35.3056 15.5525 36.1212C14.5589 38.5121 13.3004 40.5963 11.1689 42.0862C10.4846 42.5655 10.0494 43.4556 9.54336 44.1923C8.62835 45.5288 7.79986 46.9311 6.8429 48.232C5.532 50.0067 4.96045 51.7924 6.3369 53.8054C6.88747 54.6106 6.78785 55.4103 6.253 56.2018C5.46646 57.3685 5.23312 58.6256 5.41926 60.0771C5.60541 61.5287 5.82827 63.0898 5.41926 64.3934C4.28402 67.9538 3.32182 71.684 0.17566 74.0996C0.13109 74.127 0.110116 74.242 0 74.4611ZM216.181 173.141C215.942 174.303 215.688 175.204 215.58 176.127C215.394 177.688 214.416 178.841 213.09 179.074C212.324 180.679 211.779 182.281 210.166 183.132C209.875 183.286 209.702 183.757 209.558 184.118C209.451 184.463 209.377 184.818 209.335 185.178L208.069 184.661L207.424 186.304C206.619 186.304 205.998 186.194 205.426 186.326C204.322 186.581 203.242 186.956 202.162 187.317C201.8 187.438 201.297 187.591 201.163 187.865C200.172 189.999 198.615 191.929 199.066 194.591C199.275 195.794 199.066 197.078 199.328 198.264C199.779 200.406 198.945 201.915 197.558 203.32C195.025 205.886 194.15 209.041 194.629 212.662C194.808 213.787 194.868 214.93 194.808 216.069C194.687 217.54 195.227 218.446 196.512 218.865C197.069 219.062 197.662 219.123 198.245 219.043C199.624 218.821 200.983 218.481 202.309 218.027C203.011 217.763 203.603 217.25 203.981 216.578C207.154 210.034 210.274 203.461 213.341 196.859C214.015 195.405 214.39 193.797 214.914 192.266C215.116 191.68 215.239 190.938 215.648 190.585C216.435 189.911 216.605 189.139 216.556 188.18C216.494 187.451 216.494 186.718 216.556 185.989C216.6 185.606 216.896 185.252 217.08 184.893C217.366 185.14 217.654 185.381 217.932 185.636C218.084 185.795 218.225 185.964 218.357 186.142C218.619 185.425 219.046 184.817 218.965 184.296C218.404 180.643 219.88 176.494 216.181 173.141Z" fill="#FCC30B"/>
<path d="M0 74.4598C0.110116 74.2407 0.128467 74.1339 0.19139 74.0846C3.31658 71.669 4.28665 67.9306 5.435 64.3785C5.85186 63.0775 5.62377 61.4863 5.435 60.0622C5.24623 58.638 5.47957 57.3535 6.26873 56.1868C6.79309 55.3953 6.90058 54.5956 6.35263 53.7904C4.97618 51.7719 5.55298 49.9917 6.85863 48.217C7.81559 46.9161 8.6467 45.5139 9.55909 44.1773C10.0625 43.4406 10.4977 42.5505 11.1846 42.0712C13.3135 40.5814 14.5746 38.5108 15.5683 36.1062C15.9205 35.2907 16.5179 34.6175 17.2698 34.1891C18.7328 33.425 19.6478 32.1706 20.416 30.8095C21.2235 29.3853 22.3587 28.7746 23.8532 28.4322C27.4424 27.6106 30.0485 25.2196 32.1302 22.2097C32.6205 21.5004 32.6283 20.3967 32.783 19.471C33.2025 16.9239 34.6183 15.1164 36.6135 13.7196C37.156 13.3354 37.7318 13.0053 38.3334 12.7336C41.8545 11.1807 44.6257 8.79803 46.5003 5.24038C47.3078 3.70667 48.0393 3.75871 49.0277 5.20203C49.5311 5.93876 50.0922 6.1962 50.9128 6.02366C51.5971 5.88125 52.2918 5.77718 52.984 5.70049C53.3052 5.64157 53.635 5.65872 53.949 5.75067C54.263 5.84263 54.5532 6.00705 54.7983 6.23181C55.3934 6.72205 56.762 6.58785 57.6194 6.25372C60.4561 5.14452 63.1251 3.49031 66.0249 2.66046C69.4647 1.67451 73.0172 0.425635 76.6694 1.58139C78.093 2.03055 79.2047 1.45267 80.429 1.00077C81.0085 0.787151 81.7399 0.559833 82.2643 0.751546C84.5925 1.58961 86.8131 1.34586 88.9997 0.316084C90.072 -0.190587 90.9477 -0.146767 91.7841 0.880268C92.0987 1.26643 92.8066 1.30204 93.3729 1.51292C91.4563 3.06306 93.3178 4.40232 94.0519 5.99627C93.1002 6.80147 92.1432 7.57928 91.223 8.39817C90.405 9.12394 90.4365 10.2824 91.4354 10.7124C94.1673 11.8983 96.6423 13.7004 99.9379 13.4183C101.736 13.2649 103.671 14.2043 105.462 14.8918C106.018 15.1054 106.367 16.0694 106.686 16.7541C106.856 17.1442 107.114 17.4854 107.438 17.7483C107.761 18.0112 108.142 18.1879 108.545 18.2632C111.256 18.9369 113.993 19.4929 116.447 21.0458C116.922 21.347 117.876 20.9061 118.584 20.7007C120.252 20.2214 121.001 19.1095 120.642 17.2663C120.38 15.927 121.017 15.2862 122.168 14.7028C124.069 13.7415 125.902 12.8815 127.996 13.9003C128.586 14.1742 129.095 14.659 129.646 15.0342C129.955 15.2451 130.254 15.5436 130.595 15.6148C131.62 15.8312 132.692 15.8668 133.691 16.1434C134.31 16.3132 134.845 16.8062 135.429 17.1348C135.828 17.3594 136.25 17.7291 136.654 17.7182C139.936 17.6141 143.048 18.4467 146.173 19.345C147.052 19.597 148.127 19.4025 149.042 19.1423C150.214 18.8109 151.304 18.1838 152.45 17.7319C153.916 17.1512 155.14 17.5182 156.149 18.6548C156.443 18.9862 156.936 19.1177 157.198 19.2601C157.754 21.2676 158.278 23.1847 158.842 25.1019C158.935 25.4558 159.116 25.7779 159.366 26.0358C162.969 29.3579 164.723 33.9782 167.195 38.0863C167.9 39.264 168.813 40.3047 169.602 41.4276C169.79 41.7005 169.919 42.0125 169.982 42.3424C170.32 44.1582 170.768 45.8453 172.501 46.8695C173.98 47.7432 175.427 48.7566 175.978 50.597C176.18 51.268 176.209 51.991 176.348 52.6867C176.526 53.5795 176.814 54.4532 176.919 55.3542C177.276 58.4271 178.448 60.8591 181.319 62.1847C181.806 62.4093 182.194 63.0611 182.449 63.6061C183.875 66.6817 185.243 69.782 186.683 72.9836L187.126 72.6796C188.403 73.378 189.525 73.9696 190.621 74.5968C191.242 74.907 191.823 75.2991 192.349 75.7635C194.236 77.6724 196.071 79.6251 197.907 81.5642C199.742 83.5032 199.708 83.81 197.595 85.2204C197.338 85.4341 197.092 85.6617 196.858 85.9024C199.92 85.5409 200.914 88.1564 202.676 89.5285C203.378 90.0762 203.848 90.2378 204.629 89.7859C205.977 89.0054 207.314 87.9455 209.007 88.9643C209.133 88.9978 209.265 89.001 209.392 88.9735C209.519 88.9459 209.639 88.8885 209.742 88.8055C211.839 87.0855 214.461 87.3895 216.847 86.8144C218.158 86.4994 219.337 85.6422 220.617 85.1355C221.201 84.9027 221.954 84.7083 222.486 84.9109C222.806 85.0315 223.01 85.9544 222.987 86.5104C222.94 88.7014 222.806 90.8924 222.667 93.0834C222.623 93.5357 222.506 93.9772 222.324 94.3898C220.095 99.8427 217.966 105.345 215.554 110.71C214.644 112.734 213.027 114.399 211.815 116.286C209.645 119.669 206.268 121.657 203.507 124.352C201.58 126.231 199.986 128.487 198.282 130.607C197.469 131.621 196.709 132.694 195.99 133.773C195.295 134.8 194.656 135.863 192.993 135.381C193.638 136.802 192.755 137.131 192 137.681C191.321 138.177 190.608 138.84 190.275 139.599C188.859 142.828 187.6 146.128 186.24 149.384C185.841 150.337 185.92 151.101 186.602 151.868C187.075 152.406 187.491 152.996 187.844 153.626C188.02 153.939 188.177 154.47 188.044 154.738C186.754 157.335 187.477 159.997 187.684 162.656C187.831 164.549 188.421 166.069 190.099 167.005C190.697 167.339 190.854 167.794 190.6 168.591C190.248 169.69 190.071 170.842 190.075 172.001C190.091 173.392 190.227 174.696 189.842 176.131C189.501 177.404 189.881 178.933 190.12 180.316C190.382 181.844 190.23 183.15 189.247 184.394C188.416 185.443 187.792 186.67 187.005 187.762C186.683 188.182 186.272 188.517 185.805 188.743C183.164 190.06 180.482 191.284 177.868 192.654C177.139 193.035 176.337 193.675 176.012 194.409C174.822 197.107 172.383 198.266 170.244 199.802C169.953 200.013 169.458 199.901 168.702 199.969C168.813 201.229 168.899 202.508 169.049 203.776C169.113 204.183 169.253 204.572 169.46 204.923C171.133 207.961 170.373 211.121 169.859 214.235C169.78 214.709 169.261 215.216 168.81 215.495C166.275 217.111 163.703 218.661 161.144 220.239C160.743 220.485 160.357 220.764 159.786 221.151C161.267 222.213 160.599 223.342 160.14 224.47C160.03 224.719 159.938 224.976 159.864 225.24C159.128 228.165 157.654 230.514 155.198 232.218C154.423 232.816 153.765 233.565 153.26 234.423C151.315 237.496 148.74 239.821 145.767 241.738C144.802 242.36 143.89 243.074 142.959 243.751C139.406 246.331 135.479 247.733 131.161 247.057C128.356 246.618 125.802 247.131 123.233 248.089C122.853 248.196 122.481 248.329 122.118 248.489C120.545 249.343 119.192 249.111 117.834 247.908C117.257 247.399 116.382 247.259 115.64 246.952L115.365 247.388C114.948 246.251 114.507 245.123 114.138 243.97C114.111 243.822 114.114 243.669 114.147 243.522C114.179 243.375 114.24 243.237 114.326 243.115C115.359 241.713 115.446 240.475 114.473 238.818C112.258 235.044 110.181 231.169 107.732 227.568C105.284 223.966 103.973 220.146 103.8 215.791C103.72 214.197 103.521 212.612 103.205 211.05C103.033 210.074 102.705 209.135 102.235 208.273C99.6783 203.809 97.025 199.408 94.474 194.941C94.0431 194.112 93.7756 193.201 93.6875 192.262C93.4961 190.682 93.4437 189.077 93.4017 187.483C93.3781 186.759 93.4549 186.034 93.6298 185.333C94.2276 183.046 94.7467 180.718 95.5935 178.53C96.0576 177.325 97.0119 176.262 97.9269 175.328C100.486 172.716 100.766 169.774 99.3453 166.507C98.821 165.302 98.2966 164.091 97.7067 162.93C97.2872 162.108 97.2033 161.402 97.8011 160.679C98.5037 159.827 98.391 159.008 97.9033 158.052C96.7602 155.809 95.7141 153.511 94.5999 151.175L95.9711 150.406C93.5957 149.554 93.6587 147.316 92.8983 145.569C92.6741 145.033 92.3618 144.541 91.9754 144.117C90.3421 142.403 88.7375 140.647 86.994 139.073C84.6528 136.969 83.625 134.039 82.1044 131.404C83.2081 130.887 83.2081 130.887 83.9396 128.046L85.7749 127.907C85.5704 127.058 85.2322 126.376 85.2951 125.738C85.3895 124.757 85.3239 124.042 84.1599 123.821C84.7838 121.835 85.4393 119.953 85.9427 118.028C86.1079 117.401 85.9427 116.642 85.8011 115.982C85.6595 115.322 84.9962 114.752 85.6359 113.997C85.67 113.958 85.1116 113.2 85.0172 113.241C83.2265 113.988 83.1583 112.419 82.6733 111.406C82.5747 111.232 82.4661 111.065 82.3482 110.905L81.2365 111.425L80.374 110.466C79.7238 111.786 77.9226 111.997 76.381 110.962C75.0517 111.474 73.8142 113.027 72.3146 111.989C70.8149 110.951 70.4505 109.289 71.1216 107.919C68.8433 106.887 67.4065 104.11 64.3312 104.74L64.5697 103.858C59.6041 104.575 54.7747 105.619 50.4802 108.13C46.8909 110.231 43.4642 110.896 39.6128 109.201C38.7686 108.829 37.6543 109.045 36.6711 109.102C33.6403 109.283 30.7092 109.823 28.0454 111.529C27.5211 111.86 26.6401 111.786 25.9899 111.614C24.0341 111.099 22.5213 109.823 21.074 108.382C18.4942 105.813 16.1477 102.924 12.7288 101.426C12.4483 101.302 12.3277 100.738 12.1652 100.366C12.0026 99.9933 11.9816 99.4017 11.7037 99.1854C10.4689 98.2241 10.2408 96.9259 10.073 95.425C9.87371 93.6257 9.51452 91.7907 7.47214 90.9965C7.02905 90.8239 6.6856 89.8352 6.64103 89.1971C6.57024 88.0715 6.26873 87.4251 5.09154 87.3895C4.81101 87.3895 4.54096 87.0417 4.17129 86.7925L5.48219 85.7572L4.73497 84.5522C3.29561 84.826 2.53528 84.218 2.83679 83.139L1.1064 81.6107L1.50229 79.8771L4.15556 79.302L4.11623 78.8692L2.54315 78.9541C2.21542 78.0476 2.01879 77.1986 1.61503 76.4893C1.21127 75.7799 0.566309 75.1527 0 74.4598ZM162.512 138.785C163.891 138.536 163.753 136.761 165.215 137.347C166.356 137.805 165.976 138.687 166.107 139.467L166.471 139.59L167.198 138.005L169.911 136.934L169.825 136.496L168.252 135.66C168.673 135.331 169.11 135.024 169.562 134.743C170.349 134.315 170.747 133.696 170.65 132.763C170.485 131.201 170.913 130.087 172.596 129.898C172.685 129.896 172.77 129.86 172.834 129.797C172.976 129.575 173.097 129.334 173.212 129.098C172.95 129.027 172.688 128.86 172.441 128.909C172.102 129.014 171.776 129.159 171.468 129.342C171.015 128.605 170.742 127.805 170.2 127.389C169.657 126.973 168.876 126.984 168.055 126.77C167.717 126.959 167.116 127.592 166.592 127.537C164.702 127.307 163.53 128.052 163.184 130.002C162.921 131.434 162.56 132.856 162.447 134.299C162.334 135.742 162.486 137.213 162.512 138.785ZM154.574 141.088H154.133C153.931 142.198 153.305 143.069 153.648 144.482C154.028 146.046 153.512 147.823 153.59 149.496C153.622 150.419 153.91 151.313 154.419 152.068C155.824 153.947 157.198 155.796 157.473 158.266C157.657 159.909 158.784 160.295 160.378 160.547C159.88 158.721 159.529 157.042 158.947 155.456C158.563 154.472 158.002 153.574 157.295 152.81C156.508 151.942 155.24 151.375 156.432 149.904C156.465 149.845 156.487 149.78 156.495 149.712C156.504 149.645 156.499 149.576 156.482 149.51C155.855 146.704 155.22 143.897 154.579 141.088H154.574ZM170.231 163.368L169.492 163.546C169.444 164.072 169.306 164.609 169.366 165.121C169.576 166.879 169.89 168.627 170.087 170.388C170.139 170.842 170.087 171.459 169.825 171.779C168.923 172.891 168.957 174.049 169.326 175.339C169.673 176.514 169.945 177.71 170.142 178.922C170.373 180.439 171.361 180.811 172.832 181.074C172.475 179.269 172.197 177.632 171.817 176.024C171.511 174.75 171.568 173.411 171.982 172.171C172.31 171.111 172.263 169.892 172.224 168.747C172.182 167.927 172.005 167.121 171.699 166.364C171.303 165.326 170.734 164.365 170.236 163.368H170.231ZM108.113 138.637C107.924 136.446 109.424 135.373 110.672 134.116C112.331 132.431 114.006 130.761 115.64 129.052C115.954 128.723 116.392 128.137 116.295 127.83C115.64 125.702 116.765 124.607 118.296 123.678C118.372 123.632 118.382 123.47 118.432 123.339C115.881 123.612 115.532 126.042 114.277 127.652L114.667 124.163C114.009 126.239 113.805 128.507 112.832 130.333C111.82 132.25 110.074 133.721 108.637 135.386C108.61 135.422 108.58 135.456 108.548 135.488C107.588 136.345 107.528 137.391 108.118 138.637H108.113ZM50.0738 100.486C53.1072 100.935 52.3784 101.752 51.6941 103.472L50.3832 103.285L50.3176 103.521L52.5488 104.753L53.2095 96.8355L52.984 96.7917L52.3364 99.0731L49.0067 95.0444L48.0996 96.2166C48.5165 96.778 48.8861 97.271 49.2427 97.7557C49.5993 98.2405 49.9453 98.7116 50.3412 99.1443C50.5943 99.3583 50.8696 99.542 51.1619 99.692L50.0738 100.486ZM100.318 79.1842C99.4266 76.8946 99.4266 76.8946 98.0764 77.7874L100.58 82.7802L104.618 80.6275L101.246 79.2335L101.351 78.861L100.318 79.1842ZM179.313 119.389L177.771 111.099C176.002 114.155 176.466 116.661 179.313 119.389V119.389ZM119.376 122.876L128.846 120.685L128.759 120.298C125.613 120.663 122.247 120.03 119.376 122.876ZM161.765 119.685C158.771 121.676 158.074 122.78 158.742 124.508C160.292 123.314 161.826 122.183 161.765 119.696V119.685ZM13.4892 72.8193C12.8757 69.5684 10.6262 66.2846 6.93467 67.8895C7.48524 67.9498 7.82084 68.0785 8.10661 68.0018C9.35721 67.6595 10.1359 68.1771 10.8176 69.2644C11.5464 70.4092 12.4457 71.4417 13.4892 72.8193ZM150.397 163.374C151.834 163.42 152.911 162.086 153.003 160.254C150.607 161.172 150.24 161.596 150.397 163.374ZM115.176 137.985L115.543 138.035L116.822 136.09C115.448 135.816 116.19 134.995 116.377 134.25C115.572 134.266 114.756 134.132 114.785 135.217C114.809 136.145 115.037 137.065 115.176 137.985V137.985ZM162.106 42.5094L161.65 42.4875L161.125 46.3601L163.079 45.8589L162.106 42.5094ZM145.209 193.262L149.744 189.23C147.227 188.965 146.362 191.301 145.209 193.262ZM68.0279 91.777C68.9744 89.5258 68.9901 88.3508 68.2639 87.8715C68.1249 88.2358 68.0672 88.7151 67.8103 88.9917C66.8979 89.9804 67.1627 90.8321 68.0279 91.777ZM152.712 137.199L153.074 137.391L154.768 135.814L153.415 133.962L152.712 137.199ZM33.9445 99.4045C32.492 101.179 32.568 101.694 34.3718 102.751L34.7546 101.152H33.5722L33.9445 99.4045ZM159.977 46.5464C158.472 46.6012 157.418 48.0801 157.253 50.2026L159.977 46.5464ZM179.945 85.5025L180.304 85.3711L180.671 82.9062L178.836 83.7579L179.945 85.5025ZM134.268 123.363L134.459 123.054L130.482 120.205L130.22 120.624L134.268 123.363ZM74.391 104.301C75.4765 100.82 75.5603 99.9002 75.0045 99.147L74.391 104.301ZM163.123 156.338C162.651 157.888 163.063 158.255 164.906 157.981L163.123 156.338ZM167.911 123.957C167.591 122.314 167.255 122.207 165.853 123.3L167.911 123.957ZM156.613 160.002C155.174 159.331 154.689 159.687 154.684 161.259L156.613 160.002Z" fill="#FCC30B"/>
<path d="M216.18 173.14C219.882 176.495 218.403 180.641 218.962 184.295C219.041 184.815 218.603 185.423 218.354 186.141C218.231 185.96 218.098 185.787 217.955 185.623C217.677 185.368 217.389 185.127 217.103 184.881C216.92 185.248 216.626 185.601 216.579 185.976C216.517 186.705 216.517 187.439 216.579 188.167C216.628 189.126 216.455 189.898 215.672 190.572C215.263 190.925 215.147 191.668 214.937 192.254C214.413 193.782 214.046 195.392 213.364 196.847C210.302 203.449 207.182 210.022 204.005 216.566C203.626 217.238 203.034 217.75 202.332 218.015C201.006 218.469 199.647 218.808 198.268 219.031C197.685 219.111 197.092 219.05 196.535 218.853C195.253 218.434 194.7 217.527 194.831 216.056C194.891 214.917 194.831 213.775 194.653 212.649C194.181 209.026 195.051 205.874 197.581 203.307C198.968 201.902 199.802 200.391 199.351 198.252C199.089 197.066 199.296 195.787 199.089 194.579C198.627 191.917 200.185 189.986 201.186 187.853C201.32 187.565 201.826 187.423 202.185 187.305C203.265 186.943 204.345 186.571 205.449 186.313C206.021 186.182 206.642 186.291 207.447 186.291L208.092 184.648L209.358 185.166C209.4 184.806 209.475 184.451 209.581 184.106C209.725 183.744 209.898 183.284 210.189 183.12C211.797 182.268 212.347 180.655 213.113 179.061C214.439 178.828 215.417 177.678 215.603 176.114C215.687 175.202 215.939 174.298 216.18 173.14Z" fill="#FCC30B"/>
<ellipse cx="21.5" cy="75" rx="6.5" ry="2" fill="#C39A14"/>
<path fill-rule="evenodd" clip-rule="evenodd" d="M23.3245 73.1076C27.3906 68.6157 32 63.5238 32 58.5C32 52.701 27.299 48 21.5 48C15.701 48 11 52.701 11 58.5C11 63.2503 14.3235 66.998 18.5747 71.7918C19.0355 72.3113 19.5071 72.8432 19.9866 73.3899C20.7911 74.3072 22.225 74.3227 23.0435 73.418C23.1368 73.3149 23.2305 73.2114 23.3245 73.1076ZM21.6981 63.0566C24.3241 63.0566 26.4529 60.9279 26.4529 58.3019C26.4529 55.676 24.3241 53.5472 21.6981 53.5472C19.0722 53.5472 16.9434 55.676 16.9434 58.3019C16.9434 60.9279 19.0722 63.0566 21.6981 63.0566Z" fill="white"/>
<rect x="22" y="37" width="57" height="16" rx="8" fill="#55C6C6"/>
<path d="M31.4046 47.872C31.9486 47.872 32.3446 47.78 32.5926 47.596C32.8406 47.412 32.9646 47.152 32.9646 46.816C32.9646 46.616 32.9206 46.444 32.8326 46.3C32.7526 46.156 32.6326 46.028 32.4726 45.916C32.3206 45.796 32.1326 45.688 31.9086 45.592C31.6846 45.488 31.4286 45.388 31.1406 45.292C30.8526 45.188 30.5726 45.076 30.3006 44.956C30.0366 44.828 29.8006 44.672 29.5926 44.488C29.3926 44.304 29.2286 44.084 29.1006 43.828C28.9806 43.572 28.9206 43.264 28.9206 42.904C28.9206 42.152 29.1806 41.564 29.7006 41.14C30.2206 40.708 30.9286 40.492 31.8246 40.492C32.3446 40.492 32.8046 40.552 33.2046 40.672C33.6126 40.784 33.9326 40.908 34.1646 41.044L33.6966 42.268C33.4246 42.116 33.1246 42 32.7966 41.92C32.4766 41.84 32.1446 41.8 31.8006 41.8C31.3926 41.8 31.0726 41.884 30.8406 42.052C30.6166 42.22 30.5046 42.456 30.5046 42.76C30.5046 42.944 30.5406 43.104 30.6126 43.24C30.6926 43.368 30.8006 43.484 30.9366 43.588C31.0806 43.692 31.2446 43.788 31.4286 43.876C31.6206 43.964 31.8286 44.048 32.0526 44.128C32.4446 44.272 32.7926 44.42 33.0966 44.572C33.4086 44.716 33.6686 44.892 33.8766 45.1C34.0926 45.3 34.2566 45.54 34.3686 45.82C34.4806 46.092 34.5366 46.424 34.5366 46.816C34.5366 47.568 34.2686 48.152 33.7326 48.568C33.2046 48.976 32.4286 49.18 31.4046 49.18C31.0606 49.18 30.7446 49.156 30.4566 49.108C30.1766 49.068 29.9246 49.016 29.7006 48.952C29.4846 48.888 29.2966 48.824 29.1366 48.76C28.9766 48.688 28.8486 48.624 28.7526 48.568L29.1966 47.332C29.4126 47.452 29.7046 47.572 30.0726 47.692C30.4406 47.812 30.8846 47.872 31.4046 47.872ZM35.449 45.892C35.449 45.34 35.529 44.856 35.689 44.44C35.857 44.024 36.077 43.68 36.349 43.408C36.621 43.128 36.933 42.92 37.285 42.784C37.637 42.64 37.997 42.568 38.365 42.568C39.229 42.568 39.901 42.836 40.381 43.372C40.869 43.908 41.113 44.708 41.113 45.772C41.113 45.852 41.109 45.944 41.101 46.048C41.101 46.144 41.097 46.232 41.089 46.312H36.949C36.989 46.816 37.165 47.208 37.477 47.488C37.797 47.76 38.257 47.896 38.857 47.896C39.209 47.896 39.529 47.864 39.817 47.8C40.113 47.736 40.345 47.668 40.513 47.596L40.705 48.784C40.625 48.824 40.513 48.868 40.369 48.916C40.233 48.956 40.073 48.992 39.889 49.024C39.713 49.064 39.521 49.096 39.313 49.12C39.105 49.144 38.893 49.156 38.677 49.156C38.125 49.156 37.645 49.076 37.237 48.916C36.829 48.748 36.493 48.52 36.229 48.232C35.965 47.936 35.769 47.592 35.641 47.2C35.513 46.8 35.449 46.364 35.449 45.892ZM39.661 45.244C39.661 45.044 39.633 44.856 39.577 44.68C39.521 44.496 39.437 44.34 39.325 44.212C39.221 44.076 39.089 43.972 38.929 43.9C38.777 43.82 38.593 43.78 38.377 43.78C38.153 43.78 37.957 43.824 37.789 43.912C37.621 43.992 37.477 44.1 37.357 44.236C37.245 44.372 37.157 44.528 37.093 44.704C37.029 44.88 36.985 45.06 36.961 45.244H39.661ZM42.6525 42.928C42.9325 42.848 43.2965 42.772 43.7445 42.7C44.1925 42.628 44.6885 42.592 45.2325 42.592C45.7445 42.592 46.1725 42.664 46.5165 42.808C46.8605 42.944 47.1325 43.14 47.3325 43.396C47.5405 43.644 47.6845 43.948 47.7645 44.308C47.8525 44.66 47.8965 45.048 47.8965 45.472V49H46.4445V45.7C46.4445 45.364 46.4205 45.08 46.3725 44.848C46.3325 44.608 46.2605 44.416 46.1565 44.272C46.0605 44.12 45.9245 44.012 45.7485 43.948C45.5805 43.876 45.3725 43.84 45.1245 43.84C44.9405 43.84 44.7485 43.852 44.5485 43.876C44.3485 43.9 44.2005 43.92 44.1045 43.936V49H42.6525V42.928ZM49.324 45.892C49.324 45.34 49.404 44.856 49.564 44.44C49.732 44.024 49.952 43.68 50.224 43.408C50.496 43.128 50.808 42.92 51.16 42.784C51.512 42.64 51.872 42.568 52.24 42.568C53.104 42.568 53.776 42.836 54.256 43.372C54.744 43.908 54.988 44.708 54.988 45.772C54.988 45.852 54.984 45.944 54.976 46.048C54.976 46.144 54.972 46.232 54.964 46.312H50.824C50.864 46.816 51.04 47.208 51.352 47.488C51.672 47.76 52.132 47.896 52.732 47.896C53.084 47.896 53.404 47.864 53.692 47.8C53.988 47.736 54.22 47.668 54.388 47.596L54.58 48.784C54.5 48.824 54.388 48.868 54.244 48.916C54.108 48.956 53.948 48.992 53.764 49.024C53.588 49.064 53.396 49.096 53.188 49.12C52.98 49.144 52.768 49.156 52.552 49.156C52 49.156 51.52 49.076 51.112 48.916C50.704 48.748 50.368 48.52 50.104 48.232C49.84 47.936 49.644 47.592 49.516 47.2C49.388 46.8 49.324 46.364 49.324 45.892ZM53.536 45.244C53.536 45.044 53.508 44.856 53.452 44.68C53.396 44.496 53.312 44.34 53.2 44.212C53.096 44.076 52.964 43.972 52.804 43.9C52.652 43.82 52.468 43.78 52.252 43.78C52.028 43.78 51.832 43.824 51.664 43.912C51.496 43.992 51.352 44.1 51.232 44.236C51.12 44.372 51.032 44.528 50.968 44.704C50.904 44.88 50.86 45.06 50.836 45.244H53.536ZM57.6675 45.7C57.6675 46.316 57.7995 46.768 58.0635 47.056C58.3355 47.336 58.6835 47.476 59.1075 47.476C59.3395 47.476 59.5555 47.444 59.7555 47.38C59.9635 47.316 60.1315 47.24 60.2595 47.152V43.9C60.1555 43.876 60.0275 43.856 59.8755 43.84C59.7235 43.816 59.5315 43.804 59.2995 43.804C58.7715 43.804 58.3675 43.98 58.0875 44.332C57.8075 44.676 57.6675 45.132 57.6675 45.7ZM61.7115 48.364C61.7115 49.364 61.4555 50.096 60.9435 50.56C60.4395 51.024 59.6635 51.256 58.6155 51.256C58.2315 51.256 57.8555 51.224 57.4875 51.16C57.1275 51.096 56.7995 51.012 56.5035 50.908L56.7675 49.672C57.0155 49.776 57.2955 49.86 57.6075 49.924C57.9275 49.988 58.2715 50.02 58.6395 50.02C59.2235 50.02 59.6395 49.9 59.8875 49.66C60.1355 49.42 60.2595 49.064 60.2595 48.592V48.352C60.1155 48.424 59.9235 48.496 59.6835 48.568C59.4515 48.64 59.1835 48.676 58.8795 48.676C58.4795 48.676 58.1115 48.612 57.7755 48.484C57.4475 48.356 57.1635 48.168 56.9235 47.92C56.6915 47.672 56.5075 47.364 56.3715 46.996C56.2435 46.62 56.1795 46.188 56.1795 45.7C56.1795 45.244 56.2475 44.824 56.3835 44.44C56.5275 44.056 56.7315 43.728 56.9955 43.456C57.2675 43.184 57.5955 42.972 57.9795 42.82C58.3635 42.668 58.7995 42.592 59.2875 42.592C59.7595 42.592 60.2075 42.628 60.6315 42.7C61.0555 42.772 61.4155 42.848 61.7115 42.928V48.364ZM65.7668 47.98C66.2148 47.98 66.5548 47.956 66.7868 47.908V46.3C66.7068 46.276 66.5908 46.252 66.4388 46.228C66.2868 46.204 66.1188 46.192 65.9348 46.192C65.7748 46.192 65.6108 46.204 65.4428 46.228C65.2828 46.252 65.1348 46.296 64.9988 46.36C64.8708 46.424 64.7668 46.516 64.6868 46.636C64.6068 46.748 64.5668 46.892 64.5668 47.068C64.5668 47.412 64.6748 47.652 64.8908 47.788C65.1068 47.916 65.3988 47.98 65.7668 47.98ZM65.6468 42.568C66.1268 42.568 66.5308 42.628 66.8588 42.748C67.1868 42.868 67.4468 43.036 67.6388 43.252C67.8388 43.468 67.9788 43.732 68.0588 44.044C68.1468 44.348 68.1908 44.684 68.1908 45.052V48.856C67.9668 48.904 67.6268 48.96 67.1708 49.024C66.7228 49.096 66.2148 49.132 65.6468 49.132C65.2708 49.132 64.9268 49.096 64.6148 49.024C64.3028 48.952 64.0348 48.836 63.8108 48.676C63.5948 48.516 63.4228 48.308 63.2948 48.052C63.1748 47.796 63.1148 47.48 63.1148 47.104C63.1148 46.744 63.1828 46.44 63.3188 46.192C63.4628 45.944 63.6548 45.744 63.8948 45.592C64.1348 45.432 64.4108 45.32 64.7228 45.256C65.0428 45.184 65.3748 45.148 65.7188 45.148C65.8788 45.148 66.0468 45.16 66.2228 45.184C66.3988 45.2 66.5868 45.232 66.7868 45.28V45.04C66.7868 44.872 66.7668 44.712 66.7268 44.56C66.6868 44.408 66.6148 44.276 66.5108 44.164C66.4148 44.044 66.2828 43.952 66.1148 43.888C65.9548 43.824 65.7508 43.792 65.5028 43.792C65.1668 43.792 64.8588 43.816 64.5788 43.864C64.2988 43.912 64.0708 43.968 63.8948 44.032L63.7148 42.856C63.8988 42.792 64.1668 42.728 64.5188 42.664C64.8708 42.6 65.2468 42.568 65.6468 42.568ZM72.1529 49.12C71.7209 49.112 71.3609 49.064 71.0729 48.976C70.7929 48.888 70.5689 48.764 70.4009 48.604C70.2329 48.436 70.1129 48.232 70.0409 47.992C69.9769 47.744 69.9449 47.464 69.9449 47.152V39.928L71.3969 39.688V46.876C71.3969 47.052 71.4089 47.2 71.4329 47.32C71.4649 47.44 71.5169 47.544 71.5889 47.632C71.6609 47.712 71.7569 47.776 71.8769 47.824C72.0049 47.864 72.1649 47.896 72.3569 47.92L72.1529 49.12Z" fill="white"/>
<ellipse cx="86.5" cy="82" rx="6.5" ry="2" fill="#C39A14"/>
<path fill-rule="evenodd" clip-rule="evenodd" d="M88.3245 80.1076C92.3906 75.6157 97 70.5238 97 65.5C97 59.701 92.299 55 86.5 55C80.701 55 76 59.701 76 65.5C76 70.2503 79.3235 73.998 83.5747 78.7918C84.0355 79.3113 84.5071 79.8432 84.9866 80.3899C85.7911 81.3072 87.225 81.3227 88.0435 80.418C88.1368 80.3149 88.2305 80.2114 88.3245 80.1076ZM86.6981 70.0566C89.3241 70.0566 91.4529 67.9279 91.4529 65.3019C91.4529 62.676 89.3241 60.5472 86.6981 60.5472C84.0722 60.5472 81.9434 62.676 81.9434 65.3019C81.9434 67.9279 84.0722 70.0566 86.6981 70.0566Z" fill="white"/>
<rect x="93" y="49" width="44" height="16" rx="8" fill="#55C6C6"/>
<path d="M106.637 61C106.365 60.544 106.061 60.056 105.725 59.536C105.389 59.008 105.041 58.48 104.681 57.952C104.321 57.416 103.953 56.9 103.577 56.404C103.209 55.9 102.857 55.448 102.521 55.048V61H101.033V52.684H102.269C102.589 53.02 102.933 53.42 103.301 53.884C103.669 54.34 104.037 54.816 104.405 55.312C104.781 55.808 105.141 56.308 105.485 56.812C105.837 57.308 106.149 57.772 106.421 58.204V52.684H107.921V61H106.637ZM111.308 61H109.856V54.724H111.308V61ZM111.464 52.888C111.464 53.16 111.376 53.376 111.2 53.536C111.024 53.696 110.816 53.776 110.576 53.776C110.328 53.776 110.116 53.696 109.94 53.536C109.764 53.376 109.676 53.16 109.676 52.888C109.676 52.608 109.764 52.388 109.94 52.228C110.116 52.068 110.328 51.988 110.576 51.988C110.816 51.988 111.024 52.068 111.2 52.228C111.376 52.388 111.464 52.608 111.464 52.888ZM114.3 57.7C114.3 58.316 114.432 58.768 114.696 59.056C114.968 59.336 115.316 59.476 115.74 59.476C115.972 59.476 116.188 59.444 116.388 59.38C116.596 59.316 116.764 59.24 116.892 59.152V55.9C116.788 55.876 116.66 55.856 116.508 55.84C116.356 55.816 116.164 55.804 115.932 55.804C115.404 55.804 115 55.98 114.72 56.332C114.44 56.676 114.3 57.132 114.3 57.7ZM118.344 60.364C118.344 61.364 118.088 62.096 117.576 62.56C117.072 63.024 116.296 63.256 115.248 63.256C114.864 63.256 114.488 63.224 114.12 63.16C113.76 63.096 113.432 63.012 113.136 62.908L113.4 61.672C113.648 61.776 113.928 61.86 114.24 61.924C114.56 61.988 114.904 62.02 115.272 62.02C115.856 62.02 116.272 61.9 116.52 61.66C116.768 61.42 116.892 61.064 116.892 60.592V60.352C116.748 60.424 116.556 60.496 116.316 60.568C116.084 60.64 115.816 60.676 115.512 60.676C115.112 60.676 114.744 60.612 114.408 60.484C114.08 60.356 113.796 60.168 113.556 59.92C113.324 59.672 113.14 59.364 113.004 58.996C112.876 58.62 112.812 58.188 112.812 57.7C112.812 57.244 112.88 56.824 113.016 56.44C113.16 56.056 113.364 55.728 113.628 55.456C113.9 55.184 114.228 54.972 114.612 54.82C114.996 54.668 115.432 54.592 115.92 54.592C116.392 54.592 116.84 54.628 117.264 54.7C117.688 54.772 118.048 54.848 118.344 54.928V60.364ZM119.844 57.892C119.844 57.34 119.924 56.856 120.084 56.44C120.252 56.024 120.472 55.68 120.744 55.408C121.016 55.128 121.328 54.92 121.68 54.784C122.032 54.64 122.392 54.568 122.76 54.568C123.624 54.568 124.296 54.836 124.776 55.372C125.264 55.908 125.508 56.708 125.508 57.772C125.508 57.852 125.504 57.944 125.496 58.048C125.496 58.144 125.492 58.232 125.484 58.312H121.344C121.384 58.816 121.56 59.208 121.872 59.488C122.192 59.76 122.652 59.896 123.252 59.896C123.604 59.896 123.924 59.864 124.212 59.8C124.508 59.736 124.74 59.668 124.908 59.596L125.1 60.784C125.02 60.824 124.908 60.868 124.764 60.916C124.628 60.956 124.468 60.992 124.284 61.024C124.108 61.064 123.916 61.096 123.708 61.12C123.5 61.144 123.288 61.156 123.072 61.156C122.52 61.156 122.04 61.076 121.632 60.916C121.224 60.748 120.888 60.52 120.624 60.232C120.36 59.936 120.164 59.592 120.036 59.2C119.908 58.8 119.844 58.364 119.844 57.892ZM124.056 57.244C124.056 57.044 124.028 56.856 123.972 56.68C123.916 56.496 123.832 56.34 123.72 56.212C123.616 56.076 123.484 55.972 123.324 55.9C123.172 55.82 122.988 55.78 122.772 55.78C122.548 55.78 122.352 55.824 122.184 55.912C122.016 55.992 121.872 56.1 121.752 56.236C121.64 56.372 121.552 56.528 121.488 56.704C121.424 56.88 121.38 57.06 121.356 57.244H124.056ZM130.623 56.032C130.503 55.992 130.335 55.952 130.119 55.912C129.911 55.864 129.667 55.84 129.387 55.84C129.227 55.84 129.055 55.856 128.871 55.888C128.695 55.92 128.571 55.948 128.499 55.972V61H127.047V55.024C127.327 54.92 127.675 54.824 128.091 54.736C128.515 54.64 128.983 54.592 129.495 54.592C129.591 54.592 129.703 54.6 129.831 54.616C129.959 54.624 130.087 54.64 130.215 54.664C130.343 54.68 130.467 54.704 130.587 54.736C130.707 54.76 130.803 54.784 130.875 54.808L130.623 56.032Z" fill="white"/>
</svg>
