<svg width="29" height="25" viewBox="0 0 29 25" fill="none" xmlns="http://www.w3.org/2000/svg">
<path d="M18.0108 12.1216H14.3766V8.48736C14.3766 8.27566 14.2354 8.13452 14.0237 8.13452C13.812 8.13452 13.6709 8.27566 13.6709 8.48736V12.1216H10.0367C9.82497 12.1216 9.68384 12.2627 9.68384 12.4744C9.68384 12.6861 9.82497 12.8272 10.0367 12.8272H13.6709V16.4615C13.6709 16.6732 13.812 16.8143 14.0237 16.8143C14.2354 16.8143 14.3766 16.6732 14.3766 16.4615V12.8272H18.0108C18.2225 12.8272 18.3636 12.6861 18.3636 12.4744C18.3636 12.2627 18.2225 12.1216 18.0108 12.1216Z" fill="black"/>
<path d="M22.8798 0.513171C19.5985 -0.792323 16.1759 0.442603 14.0236 3.65341C11.8713 0.442603 8.44883 -0.792323 5.16746 0.513171C1.99193 1.78338 -0.901324 5.59401 0.263035 10.9218C1.32154 15.6851 4.99104 19.2488 7.84901 21.4011C10.954 23.7298 13.7414 24.8941 13.8825 24.9647C13.9178 25 13.9884 25 14.0236 25C14.0589 25 14.1295 25 14.1648 24.9647C14.2706 24.9294 17.0933 23.7298 20.1983 21.4011C23.0915 19.2488 26.7257 15.6851 27.7843 10.9218C28.9839 5.59401 26.0906 1.78338 22.8798 0.513171ZM27.0786 10.7807C25.2438 18.9665 15.2939 23.6592 14.0236 24.259C12.7534 23.6945 2.80346 19.0018 0.968707 10.7807C-0.125085 5.841 2.52119 2.31264 5.41444 1.18356C6.1554 0.901291 6.93164 0.724873 7.77844 0.724873C9.82489 0.724873 12.0478 1.71281 13.7061 4.5355C13.8472 4.7472 14.2001 4.7472 14.3059 4.5355C16.6699 0.583738 20.1277 0.230902 22.5976 1.18356C25.5614 2.31264 28.2077 5.841 27.0786 10.7807Z" fill="black"/>
</svg>
