<svg width="28" height="30" viewBox="0 0 28 30" fill="none" xmlns="http://www.w3.org/2000/svg">
<path d="M22.0417 21.5065C24.9307 21.5065 27.2727 23.4798 27.2727 25.9139V29.4545H0.54541V25.9139C0.54541 23.4798 2.8873 21.5065 5.77635 21.5065L13.909 20.1818" fill="#FCC30B"/>
<path d="M27.1051 30H0.713327C0.319101 30 0 29.6748 0 29.2728V25.6632C0 22.8027 2.60442 20.4719 5.81852 20.4428L13.7929 19.102C14.1865 19.0317 14.5494 19.305 14.6128 19.7006C14.6769 20.097 14.4143 20.4711 14.0256 20.5365L5.99479 21.8873C5.95644 21.8937 5.91736 21.8974 5.87849 21.8974C3.42349 21.8971 1.42644 23.5866 1.42644 25.6632V28.5456H26.3916V25.6632C26.3916 23.5866 24.3946 21.8971 21.9398 21.8971C21.5456 21.8971 21.2265 21.5719 21.2265 21.1699C21.2265 20.7679 21.5455 20.4427 21.9398 20.4427C25.181 20.4427 27.8182 22.7848 27.8182 25.6631V29.2727C27.8184 29.6747 27.4994 30 27.1051 30Z" fill="#2B858B"/>
<path d="M17.4545 20.0141C15.3944 20.965 12.9692 20.965 10.9091 20.0141V14.7273H17.4545V20.0141Z" fill="white"/>
<path d="M13.909 21.2727C12.6561 21.2727 11.4024 21.0296 10.2598 20.5424C9.99115 20.4275 9.81824 20.1724 9.81824 19.8902V14.8953C9.81824 14.501 10.1509 14.1818 10.5621 14.1818H17.2562C17.6673 14.1818 18.0001 14.5009 18.0001 14.8953V19.8902C18.0001 20.1724 17.8271 20.4274 17.5585 20.5424C16.4156 21.0296 15.162 21.2727 13.909 21.2727ZM17.2561 19.8902H17.2634H17.2561ZM11.3058 19.4095C12.9664 19.9933 14.8518 19.9933 16.5124 19.4095V15.6089H11.3058V19.4095Z" fill="#2B858B"/>
<path d="M17.7608 16.3636H10.0573C8.41897 16.3636 7.09094 15.033 7.09094 13.3918V7.01651C7.09094 3.44266 9.98291 0.54541 13.5503 0.54541H14.268C17.8353 0.54541 20.7273 3.44266 20.7273 7.01651V13.3918C20.7272 15.033 19.3992 16.3636 17.7608 16.3636Z" fill="white"/>
<path d="M17.673 16.9091H10.145C8.16041 16.9091 6.54541 15.2867 6.54541 13.2928V7.04545C6.54541 3.16073 9.69158 0 13.5584 0H14.2597C18.1265 0 21.2727 3.16073 21.2727 7.04545V13.2928C21.2726 15.2866 19.6577 16.9091 17.673 16.9091ZM13.5584 1.40915C10.4648 1.40915 7.94807 3.93755 7.94807 7.04545V13.2928C7.94807 14.5099 8.93354 15.4999 10.145 15.4999H17.6731C18.8846 15.4999 19.87 14.5099 19.87 13.2928V7.04545C19.87 3.93755 17.3533 1.40915 14.2597 1.40915H13.5584Z" fill="#2B858B"/>
</svg>
